<?xml version="1.0" encoding="UTF-8" standalone="no"?>
<!-- Created with Inkscape (http://www.inkscape.org/) -->

<svg
   xmlns:dc="http://purl.org/dc/elements/1.1/"
   xmlns:cc="http://creativecommons.org/ns#"
   xmlns:rdf="http://www.w3.org/1999/02/22-rdf-syntax-ns#"
   xmlns:svg="http://www.w3.org/2000/svg"
   xmlns="http://www.w3.org/2000/svg"
   xmlns:sodipodi="http://sodipodi.sourceforge.net/DTD/sodipodi-0.dtd"
   xmlns:inkscape="http://www.inkscape.org/namespaces/inkscape"
   width="95.287415mm"
   height="116.75158mm"
   viewBox="0 0 337.63257 413.6867"
   id="svg5216"
   version="1.1"
   inkscape:version="0.91 r13725"
   sodipodi:docname="next_surf.svg">
  <defs
     id="defs5218" />
  <sodipodi:namedview
     id="base"
     pagecolor="#ffffff"
     bordercolor="#666666"
     borderopacity="1.0"
     inkscape:pageopacity="0.0"
     inkscape:pageshadow="2"
     inkscape:zoom="1.4"
     inkscape:cx="181.62364"
     inkscape:cy="260.41143"
     inkscape:document-units="px"
     inkscape:current-layer="g5764"
     showgrid="false"
     fit-margin-top="0"
     fit-margin-left="0"
     fit-margin-right="0"
     fit-margin-bottom="0"
     inkscape:window-width="1680"
     inkscape:window-height="986"
     inkscape:window-x="1680"
     inkscape:window-y="27"
     inkscape:window-maximized="1" />
  <metadata
     id="metadata5221">
    <rdf:RDF>
      <cc:Work
         rdf:about="">
        <dc:format>image/svg+xml</dc:format>
        <dc:type
           rdf:resource="http://purl.org/dc/dcmitype/StillImage" />
        <dc:title></dc:title>
      </cc:Work>
    </rdf:RDF>
  </metadata>
  <g
     inkscape:label="Layer 1"
     inkscape:groupmode="layer"
     id="layer1"
     transform="translate(-222.61229,-456.94742)">
    <g
       transform="translate(181.30705,294.39142)"
       id="g5764">
      <path
         style="fill:#ffc000;fill-rule:nonzero"
         inkscape:connector-curvature="0"
         id="path5056"
         d="m 378.4378,339.6844 0,0 c 0,92.95856 -75.35779,168.31635 -168.31628,168.31635 -92.95852,0 -168.31628,-75.35779 -168.31628,-168.31635 0,-92.95856 75.35776,-168.31636 168.31628,-168.31636 l 0,168.31636 z" />
      <path
         style="fill:#b54b4b;fill-opacity:1;fill-rule:nonzero;stroke:#000000;stroke-width:1;stroke-linecap:butt;stroke-linejoin:round;stroke-opacity:1"
         inkscape:connector-curvature="0"
         id="path5058"
         d="m 378.4378,339.6844 0,0 c 0,92.95856 -75.35779,168.31635 -168.31628,168.31635 -92.95852,0 -168.31628,-75.35779 -168.31628,-168.31635 0,-92.95856 75.35776,-168.31636 168.31628,-168.31636 l 0,168.31636 z" />
      <path
         style="fill:#000000;fill-opacity:0;fill-rule:nonzero"
         inkscape:connector-curvature="0"
         id="path5060"
         d="M 308.73862,424.95493 197.59861,361.03901" />
      <path
         style="fill:#111792;fill-opacity:1;fill-rule:evenodd;stroke:#2a2e7e;stroke-width:4;stroke-linecap:butt;stroke-linejoin:round;stroke-opacity:1"
         inkscape:connector-curvature="0"
         id="path5062"
         d="M 308.7386,424.95493 209.48199,367.87308" />
      <path
         style="fill:#111792;fill-opacity:1;fill-rule:evenodd;stroke:#2a2e7e;stroke-width:4;stroke-linecap:butt;stroke-opacity:1"
         inkscape:connector-curvature="0"
         id="path5064"
         d="m 209.48198,367.87305 6.14204,-1.65689 -12.95628,-2.26193 8.47115,10.06088 z" />
      <path
         style="fill:#76923c;fill-rule:nonzero"
         inkscape:connector-curvature="0"
         id="path5066"
         d="m 296.87476,424.9547 0,0 c 0,-6.55219 4.64761,-11.86377 10.38074,-11.86377 l 0,0 c 2.75314,0 5.39355,1.24994 7.3403,3.47482 1.94678,2.22489 3.04046,5.2425 3.04046,8.38895 l 0,0 c 0,6.55218 -4.64761,11.86377 -10.38076,11.86377 l 0,0 c -5.73313,0 -10.38074,-5.31158 -10.38074,-11.86377 z" />
      <path
         style="fill-rule:nonzero;stroke:#000000;stroke-width:1;stroke-linecap:butt;stroke-linejoin:round"
         inkscape:connector-curvature="0"
         id="path5068"
         d="m 296.87476,424.9547 0,0 c 0,-6.55219 4.64761,-11.86377 10.38074,-11.86377 l 0,0 c 2.75314,0 5.39355,1.24994 7.3403,3.47482 1.94678,2.22489 3.04046,5.2425 3.04046,8.38895 l 0,0 c 0,6.55218 -4.64761,11.86377 -10.38076,11.86377 l 0,0 c -5.73313,0 -10.38074,-5.31158 -10.38074,-11.86377 z" />
      <path
         style="fill:#000000;fill-opacity:0;fill-rule:nonzero"
         inkscape:connector-curvature="0"
         id="path5070"
         d="m 175.01842,373.55838 45.1604,0 0,49.41571 -45.1604,0 z" />
      <path
         style="fill:#2a2e7e;fill-opacity:1;fill-rule:nonzero"
         inkscape:connector-curvature="0"
         id="path5072"
         d="m 184.29967,408.27838 0.79687,-3.70312 5.25,0 q -2.98437,-2.78125 -2.98437,-7.21875 0,-4.8125 3.32812,-8.59375 3.34375,-3.78125 8.89063,-3.78125 4.17187,0 6.76562,2.625 2.60938,2.60937 2.60938,7.01562 0,5.73438 -5.46875,9.95313 l 4.76562,0 -0.78125,3.70312 -10.60937,0 0.6875,-3.23437 q 3.39062,-0.78125 5.03125,-4.17188 1.65625,-3.40625 1.65625,-6.5 0,-2.40625 -1.375,-3.92187 -1.35938,-1.53125 -3.75,-1.53125 -3.45313,0 -5.4375,3.20312 -1.98438,3.20313 -1.98438,7.07813 0,4.09375 3.5,5.84375 l -0.70312,3.23437 -10.1875,0 z" />
      <path
         style="fill:#000000;fill-opacity:0;fill-rule:nonzero"
         inkscape:connector-curvature="0"
         id="path5074"
         d="m 276.50433,423.3237 36.23816,0 0,49.41571 -36.23816,0 z" />
      <path
         style="fill:#080000;fill-opacity:1;fill-rule:nonzero;stroke:#000000;stroke-opacity:1"
         inkscape:connector-curvature="0"
         id="path5076"
         d="m 286.95746,444.49683 5.45313,-0.9375 q 1.48437,2.32812 2.09375,5.125 1.53125,-2.26563 2.3125,-3.17188 1.04687,-1.21875 1.71875,-1.57812 0.6875,-0.375 1.45312,-0.375 0.85938,0 1.3125,0.46875 0.46875,0.46875 0.46875,1.26562 0,0.75 -0.46875,1.23438 -0.45312,0.46875 -1.14062,0.46875 -0.5,0 -1.15625,-0.17188 -0.64063,-0.1875 -0.89063,-0.1875 -0.65625,0 -1.25,0.46875 -0.8125,0.64063 -2,2.73438 1.32813,4.6875 2.125,5.71875 0.46875,0.60937 0.95313,0.60937 0.40625,0 0.70312,-0.20312 0.45313,-0.32813 1.39063,-1.64063 l 0.5625,0.32813 q -1.375,2.21875 -2.6875,3.125 -1,0.70312 -1.96875,0.70312 -1,0 -1.67188,-0.4375 -0.65625,-0.45312 -1.17187,-1.45312 -0.51563,-1.01563 -1.21875,-3.23438 -1.82813,2.32813 -2.875,3.40625 -1.03125,1.0625 -1.71875,1.39063 -0.6875,0.32812 -1.46875,0.32812 -0.8125,0 -1.28125,-0.46875 -0.48438,-0.46875 -0.48438,-1.21875 0,-0.79687 0.51563,-1.3125 0.51562,-0.51562 1.3125,-0.51562 0.42187,0 0.95312,0.25 0.78125,0.375 1.125,0.375 0.45313,0 0.8125,-0.1875 0.46875,-0.23438 1.1875,-1.01563 0.4375,-0.48437 1.60938,-2.0625 -1.5,-5.5625 -2.34375,-6.65625 -0.53125,-0.70312 -1.34375,-0.70312 -0.42188,0 -1.03125,0.125 l 0.10937,-0.59375 z" />
      <path
         style="fill:#000000;fill-opacity:0;fill-rule:nonzero"
         inkscape:connector-curvature="0"
         id="path5078"
         d="m 74.07999,162.556 41.72876,0 0,49.41573 -41.72876,0 z" />
      <path
         style="fill:#000000;fill-rule:nonzero"
         inkscape:connector-curvature="0"
         id="path5080"
         d="m 88.03311,176.0885 8.375,0 q 2.796875,0 4,0.29687 1.57812,0.375 2.4375,1.46875 0.875,1.07813 0.875,2.45313 0,1.125 -0.6875,2.29687 -0.6875,1.17188 -2.0625,1.9375 -1.359375,0.75 -4.1875,1.39063 2.9375,0.82812 4.07812,2.125 1.14063,1.29687 1.14063,3.01562 0,1.60938 -1.125,3.1875 -1.125,1.5625 -2.984375,2.29688 -1.859375,0.71875 -6.8125,0.71875 l -8.8125,0 0.203125,-0.57813 q 1.28125,0 1.828125,-0.23437 0.5625,-0.23438 0.890625,-0.71875 0.34375,-0.5 0.796875,-2.0625 l 3.78125,-13.03125 q 0.578125,-1.98438 0.578125,-2.65625 0,-0.54688 -0.46875,-0.90625 -0.453125,-0.35938 -2,-0.42188 l 0.15625,-0.57812 z m 4.796875,9.35937 q 2.125,-0.0312 3.34375,-0.67187 1.234375,-0.64063 1.96875,-2.09375 0.75,-1.46875 0.75,-2.76563 0,-1.21875 -0.765625,-1.98437 -0.765625,-0.76563 -2.046875,-0.73438 l -0.859375,0.0312 -2.390625,8.21875 z m -0.375,1.17188 -2.703125,9.42187 q 0.78125,0.0312 1.171875,0.0312 3.484375,0 4.84375,-1.9375 1.359375,-1.95312 1.359375,-4.17187 0,-1.0625 -0.53125,-1.875 -0.515625,-0.82813 -1.34375,-1.14063 -0.828125,-0.32812 -2.796875,-0.32812 z" />
      <path
         style="fill:#000000;fill-opacity:0;fill-rule:nonzero"
         inkscape:connector-curvature="0"
         id="path5082"
         d="m 163.84718,270.72665 36.23814,0 0,49.41571 -36.23814,0 z" />
      <path
         style="fill:#000000;fill-rule:nonzero"
         inkscape:connector-curvature="0"
         id="path5084"
         d="m 190.30031,283.77478 -5.07813,17.48438 q -0.48437,1.64062 -0.48437,1.98437 0,0.17188 0.125,0.29688 0.125,0.125 0.26562,0.125 0.26563,0 0.60938,-0.26563 0.57812,-0.4375 1.40625,-1.65625 l 0.5625,0.29688 q -2.20313,3.84375 -4.84375,3.84375 -0.9375,0 -1.45313,-0.48438 -0.5,-0.5 -0.5,-1.26562 0,-0.73438 0.40625,-2.09375 l 0.46875,-1.59375 q -1.95312,3.45312 -3.39062,4.59375 -1.09375,0.84375 -2.125,0.84375 -1.17188,0 -1.98438,-0.95313 -0.79687,-0.95312 -0.79687,-2.78125 0,-2.32812 1.03125,-4.59375 1.03125,-2.26562 2.375,-3.78125 1.35937,-1.51562 2.57812,-2.15625 1.23438,-0.65625 2.42188,-0.65625 0.60937,0 1.07812,0.25 0.48438,0.25 1.09375,0.9375 l 1.15625,-3.89062 q 0.42188,-1.4375 0.42188,-2.0625 0,-0.375 -0.28125,-0.64063 -0.28125,-0.26562 -0.75,-0.26562 -0.21875,0 -0.54688,0.0469 l 0.15625,-0.60937 5.14063,-0.95313 0.9375,0 z m -6.875,9.90625 q 0,-0.95312 -0.375,-1.39062 -0.375,-0.4375 -0.875,-0.4375 -0.5,0 -1.07813,0.51562 -1.10937,1 -2.32812,4.03125 -1.20313,3.01563 -1.20313,5.07813 0,0.75 0.26563,1.10937 0.26562,0.35938 0.59375,0.35938 0.54687,0 1.09375,-0.5 1.32812,-1.1875 2.60937,-4.07813 1.29688,-2.90625 1.29688,-4.6875 z" />
      <path
         style="fill:#000000;fill-opacity:0;fill-rule:nonzero"
         inkscape:connector-curvature="0"
         id="path5086"
         d="M 317.63626,413.09094 61.67696,258.26962" />
      <path
         style="fill-rule:evenodd;stroke:#000000;stroke-width:1;stroke-linecap:butt;stroke-linejoin:round"
         inkscape:connector-curvature="0"
         id="path5088"
         d="M 314.70386,411.31726 64.60935,260.04333" />
      <path
         style="fill:#000000;fill-rule:evenodd;stroke:#000000;stroke-width:1;stroke-linecap:butt"
         inkscape:connector-curvature="0"
         id="path5090"
         d="m 314.70386,411.31726 -1.54428,0.38022 3.2258,0.63687 -2.06174,-2.56137 z" />
      <path
         style="fill:#000000;fill-rule:evenodd;stroke:#000000;stroke-width:1;stroke-linecap:butt"
         inkscape:connector-curvature="0"
         id="path5092"
         d="m 64.609344,260.04333 1.544289,-0.38022 -3.225796,-0.63687 2.061725,2.56137 z" />
      <path
         style="fill:#000000;fill-opacity:0;fill-rule:nonzero"
         inkscape:connector-curvature="0"
         id="path5164"
         d="m 56.877583,527.7739 307.493867,0 0,48.46881 -307.493867,0 z" />
      <path
         style="fill:#000000;fill-rule:nonzero"
         inkscape:connector-curvature="0"
         id="path5166"
         d="m 84.87759,552.0877 q 0,2.78125 -0.734375,4.76563 -0.71875,1.96875 -2.078125,3.21875 -1.359375,1.25 -3.3125,1.84375 -1.9375,0.57812 -4.625,0.57812 l -4.828125,0 q -0.515625,0 -0.875,-0.29687 -0.34375,-0.3125 -0.34375,-1 l 0,-17.625 q 0,-0.6875 0.34375,-0.98438 0.359375,-0.3125 0.875,-0.3125 l 5.1875,0 q 2.703125,0 4.578125,0.64063 1.890625,0.625 3.171875,1.875 1.296875,1.23437 1.96875,3.0625 0.671875,1.82812 0.671875,4.23437 z m -4.25,0.14063 q 0,-1.4375 -0.34375,-2.67188 -0.328125,-1.23437 -1.078125,-2.14062 -0.734375,-0.90625 -1.90625,-1.40625 -1.15625,-0.51563 -3.046875,-0.51563 l -2.078125,0 0,13.75 2.140625,0 q 1.6875,0 2.84375,-0.4375 1.15625,-0.4375 1.921875,-1.3125 0.78125,-0.89062 1.15625,-2.20312 0.390625,-1.3125 0.390625,-3.0625 z m 11.328125,9.73437 q 0,0.15625 -0.09375,0.28125 -0.09375,0.10938 -0.328125,0.1875 -0.21875,0.0781 -0.59375,0.10938 -0.375,0.0469 -0.953125,0.0469 -0.578125,0 -0.953125,-0.0469 -0.375,-0.0312 -0.609375,-0.10938 -0.21875,-0.0781 -0.3125,-0.1875 -0.09375,-0.125 -0.09375,-0.28125 l 0,-13.90625 q 0,-0.15625 0.09375,-0.26562 0.09375,-0.125 0.3125,-0.20313 0.234375,-0.0937 0.609375,-0.14062 0.375,-0.0469 0.953125,-0.0469 0.578125,0 0.953125,0.0469 0.375,0.0469 0.59375,0.14062 0.234375,0.0781 0.328125,0.20313 0.09375,0.10937 0.09375,0.26562 l 0,13.90625 z m 0.296875,-18.65625 q 0,1.1875 -0.484375,1.64063 -0.484375,0.45312 -1.796875,0.45312 -1.328125,0 -1.796875,-0.4375 -0.453125,-0.4375 -0.453125,-1.57812 0,-1.1875 0.46875,-1.64063 0.484375,-0.46875 1.8125,-0.46875 1.3125,0 1.78125,0.45313 0.46875,0.4375 0.46875,1.57812 z m 13.4375,14.71875 q 0,1.1875 -0.45313,2.09375 -0.4375,0.90625 -1.25,1.51563 -0.8125,0.60937 -1.92187,0.90625 -1.10938,0.3125 -2.40625,0.3125 -0.78125,0 -1.5,-0.125 -0.703125,-0.10938 -1.265625,-0.28125 -0.5625,-0.1875 -0.9375,-0.375 -0.375,-0.1875 -0.546875,-0.34375 -0.171875,-0.17188 -0.265625,-0.51563 -0.09375,-0.35937 -0.09375,-1.04687 0,-0.45313 0.03125,-0.71875 0.03125,-0.28125 0.09375,-0.4375 0.0625,-0.17188 0.15625,-0.21875 0.09375,-0.0625 0.234375,-0.0625 0.171875,0 0.5,0.20312 0.34375,0.1875 0.84375,0.42188 0.5,0.23437 1.15625,0.4375 0.671875,0.20312 1.515625,0.20312 0.531245,0 0.937495,-0.10937 0.42188,-0.10938 0.71875,-0.3125 0.3125,-0.20313 0.46875,-0.51563 0.15625,-0.3125 0.15625,-0.71875 0,-0.46875 -0.29687,-0.79687 -0.28125,-0.34375 -0.76563,-0.59375 -0.46875,-0.25 -1.07812,-0.46875 -0.59375,-0.21875 -1.234375,-0.48438 -0.625,-0.26562 -1.234375,-0.60937 -0.59375,-0.34375 -1.078125,-0.84375 -0.46875,-0.5 -0.765625,-1.20313 -0.28125,-0.70312 -0.28125,-1.6875 0,-1 0.390625,-1.82812 0.390625,-0.84375 1.125,-1.4375 0.734375,-0.59375 1.78125,-0.92188 1.0625,-0.32812 2.374995,-0.32812 0.65625,0 1.26563,0.0937 0.625,0.0937 1.125,0.23437 0.5,0.14063 0.84375,0.3125 0.34375,0.15625 0.48437,0.28125 0.15625,0.10938 0.21875,0.23438 0.0625,0.10937 0.0937,0.28125 0.0312,0.15625 0.0469,0.40625 0.0312,0.23437 0.0312,0.59375 0,0.42187 -0.0312,0.6875 -0.0156,0.26562 -0.0781,0.42187 -0.0469,0.15625 -0.14062,0.21875 -0.0937,0.0469 -0.21875,0.0469 -0.14063,0 -0.4375,-0.15625 -0.29688,-0.17188 -0.75,-0.35938 -0.4375,-0.1875 -1.03125,-0.34375 -0.57813,-0.17187 -1.32813,-0.17187 -0.53125,0 -0.92187,0.10937 -0.390625,0.10938 -0.640625,0.3125 -0.25,0.20313 -0.375,0.48438 -0.125,0.26562 -0.125,0.57812 0,0.48438 0.296875,0.8125 0.296875,0.32813 0.78125,0.57813 0.48437,0.25 1.09375,0.46875 0.625,0.21875 1.25,0.48437 0.64062,0.25 1.25,0.59375 0.625,0.34375 1.10937,0.84375 0.48438,0.5 0.78125,1.20313 0.29688,0.6875 0.29688,1.64062 z m 11.20312,2.5625 q 0,0.6875 -0.0937,1.0625 -0.0781,0.35938 -0.21875,0.51563 -0.14062,0.14062 -0.42187,0.26562 -0.26563,0.10938 -0.64063,0.1875 -0.35937,0.0937 -0.79687,0.14063 -0.42188,0.0469 -0.85938,0.0469 -1.17187,0 -2.03125,-0.29687 -0.85937,-0.29688 -1.42187,-0.90625 -0.5625,-0.625 -0.82813,-1.5625 -0.26562,-0.9375 -0.26562,-2.21875 l 0,-7.14063 -1.67188,0 q -0.29687,0 -0.45312,-0.35937 -0.15625,-0.375 -0.15625,-1.23438 0,-0.45312 0.0312,-0.76562 0.0469,-0.3125 0.125,-0.48438 0.0781,-0.1875 0.1875,-0.26562 0.125,-0.0781 0.28125,-0.0781 l 1.65625,0 0,-3.10937 q 0,-0.15625 0.0781,-0.28125 0.0937,-0.125 0.3125,-0.20313 0.23438,-0.0937 0.60938,-0.125 0.39062,-0.0469 0.95312,-0.0469 0.57813,0 0.95313,0.0469 0.39062,0.0312 0.60937,0.125 0.21875,0.0781 0.3125,0.20313 0.0937,0.125 0.0937,0.28125 l 0,3.10937 3.03125,0 q 0.15625,0 0.26563,0.0781 0.125,0.0781 0.20312,0.26562 0.0781,0.17188 0.10938,0.48438 0.0469,0.3125 0.0469,0.76562 0,0.85938 -0.15625,1.23438 -0.15625,0.35937 -0.45312,0.35937 l -3.04688,0 0,6.54688 q 0,1.14062 0.35938,1.71875 0.35937,0.5625 1.28125,0.5625 0.3125,0 0.5625,-0.0469 0.25,-0.0625 0.4375,-0.125 0.20312,-0.0781 0.32812,-0.125 0.14063,-0.0625 0.25,-0.0625 0.0937,0 0.17188,0.0625 0.0937,0.0469 0.14062,0.21875 0.0469,0.15625 0.0781,0.4375 0.0469,0.28125 0.0469,0.71875 z m 14.71875,1.42188 q 0,0.21875 -0.15625,0.34375 -0.15625,0.125 -0.5,0.17187 -0.32813,0.0625 -0.98438,0.0625 -0.70312,0 -1.03125,-0.0625 -0.3125,-0.0469 -0.45312,-0.17187 -0.125,-0.125 -0.125,-0.34375 l 0,-1.10938 q -0.85937,0.92188 -1.96875,1.4375 -1.09375,0.51563 -2.4375,0.51563 -1.10937,0 -2.04687,-0.29688 -0.92188,-0.28125 -1.60938,-0.84375 -0.67187,-0.57812 -1.04687,-1.42187 -0.375,-0.84375 -0.375,-1.96875 0,-1.21875 0.46875,-2.10938 0.48437,-0.90625 1.42187,-1.48437 0.95313,-0.59375 2.35938,-0.875 1.40625,-0.28125 3.26562,-0.28125 l 1.35938,0 0,-0.84375 q 0,-0.65625 -0.14063,-1.14063 -0.125,-0.5 -0.4375,-0.82812 -0.29687,-0.32813 -0.8125,-0.48438 -0.5,-0.15625 -1.25,-0.15625 -0.98437,0 -1.76562,0.21875 -0.76563,0.21875 -1.35938,0.48438 -0.59375,0.26562 -1,0.48437 -0.39062,0.21875 -0.64062,0.21875 -0.17188,0 -0.3125,-0.10937 -0.125,-0.10938 -0.21875,-0.3125 -0.0781,-0.20313 -0.125,-0.5 -0.0469,-0.29688 -0.0469,-0.65625 0,-0.48438 0.0781,-0.76563 0.0781,-0.28125 0.29687,-0.5 0.21875,-0.23437 0.76563,-0.5 0.54687,-0.28125 1.28125,-0.51562 0.73437,-0.23438 1.59375,-0.375 0.875,-0.15625 1.79687,-0.15625 1.64063,0 2.79687,0.32812 1.17188,0.3125 1.92188,0.98438 0.75,0.65625 1.09375,1.70312 0.34375,1.04688 0.34375,2.48438 l 0,9.375 z m -3.85937,-5.96875 -1.5,0 q -0.95313,0 -1.625,0.14062 -0.67188,0.14063 -1.09375,0.42188 -0.42188,0.28125 -0.625,0.6875 -0.1875,0.39062 -0.1875,0.90625 0,0.875 0.54687,1.375 0.5625,0.5 1.54688,0.5 0.82812,0 1.51562,-0.42188 0.70313,-0.42187 1.42188,-1.23437 l 0,-2.375 z m 21.09374,5.92187 q 0,0.15625 -0.0937,0.28125 -0.0937,0.10938 -0.3125,0.1875 -0.21875,0.0781 -0.60937,0.10938 -0.375,0.0469 -0.9375,0.0469 -0.57813,0 -0.96875,-0.0469 -0.375,-0.0312 -0.59375,-0.10938 -0.21875,-0.0781 -0.3125,-0.1875 -0.0937,-0.125 -0.0937,-0.28125 l 0,-7.95312 q 0,-1.01563 -0.15625,-1.59375 -0.14063,-0.57813 -0.42188,-0.98438 -0.28125,-0.42187 -0.73437,-0.64062 -0.4375,-0.23438 -1.03125,-0.23438 -0.75,0 -1.51563,0.54688 -0.76562,0.54687 -1.59375,1.59375 l 0,9.26562 q 0,0.15625 -0.0937,0.28125 -0.0937,0.10938 -0.32812,0.1875 -0.21875,0.0781 -0.59375,0.10938 -0.375,0.0469 -0.95313,0.0469 -0.57812,0 -0.95312,-0.0469 -0.375,-0.0312 -0.60938,-0.10938 -0.21875,-0.0781 -0.3125,-0.1875 -0.0937,-0.125 -0.0937,-0.28125 l 0,-13.9375 q 0,-0.15625 0.0781,-0.26562 0.0781,-0.125 0.28125,-0.20313 0.20312,-0.0781 0.51562,-0.10937 0.32813,-0.0469 0.8125,-0.0469 0.5,0 0.82813,0.0469 0.32812,0.0312 0.5,0.10937 0.1875,0.0781 0.26562,0.20313 0.0781,0.10937 0.0781,0.26562 l 0,1.60938 q 1.15625,-1.25 2.34375,-1.875 1.20312,-0.625 2.5,-0.625 1.42187,0 2.39062,0.46875 0.98438,0.46875 1.57813,1.28125 0.60937,0.79687 0.875,1.875 0.26562,1.07812 0.26562,2.59375 l 0,8.60937 z m 14.40625,-2.21875 q 0,0.40625 -0.0312,0.6875 -0.0156,0.26563 -0.0625,0.45313 -0.0312,0.1875 -0.0937,0.3125 -0.0469,0.10937 -0.23437,0.29687 -0.1875,0.17188 -0.64063,0.4375 -0.45312,0.25 -1.03125,0.45313 -0.57812,0.20312 -1.26562,0.32812 -0.67188,0.125 -1.39063,0.125 -1.60937,0 -2.85937,-0.5 -1.23438,-0.5 -2.07813,-1.46875 -0.84375,-0.98437 -1.28125,-2.39062 -0.42187,-1.40625 -0.42187,-3.21875 0,-2.09375 0.51562,-3.60938 0.53125,-1.53125 1.46875,-2.53125 0.9375,-1 2.21875,-1.48437 1.28125,-0.48438 2.8125,-0.48438 0.625,0 1.21875,0.10938 0.60938,0.10937 1.125,0.29687 0.53125,0.1875 0.9375,0.42188 0.42188,0.23437 0.59375,0.40625 0.17188,0.17187 0.23438,0.29687 0.0781,0.10938 0.10937,0.29688 0.0469,0.1875 0.0625,0.46875 0.0312,0.26562 0.0312,0.65625 0,0.90625 -0.15625,1.28125 -0.15625,0.35937 -0.40625,0.35937 -0.26562,0 -0.5625,-0.21875 -0.29687,-0.21875 -0.70312,-0.48437 -0.40625,-0.26563 -0.96875,-0.48438 -0.5625,-0.21875 -1.34375,-0.21875 -1.53125,0 -2.34375,1.1875 -0.8125,1.17188 -0.8125,3.45313 0,1.125 0.20312,1.98437 0.20313,0.85938 0.59375,1.4375 0.40625,0.57813 1,0.875 0.60938,0.28125 1.40625,0.28125 0.8125,0 1.39063,-0.23437 0.59375,-0.25 1.03125,-0.54688 0.4375,-0.29687 0.73437,-0.53125 0.29688,-0.25 0.5,-0.25 0.14063,0 0.23438,0.0781 0.0937,0.0781 0.14062,0.29687 0.0625,0.20313 0.0937,0.53125 0.0312,0.32813 0.0312,0.84375 z m 15.71875,-5.15625 q 0,0.71875 -0.32812,1.0625 -0.3125,0.34375 -0.875,0.34375 l -8.48438,0 q 0,0.89063 0.20313,1.625 0.21875,0.71875 0.67187,1.23438 0.46875,0.5 1.1875,0.76562 0.73438,0.26563 1.75,0.26563 1.03125,0 1.8125,-0.14063 0.78125,-0.15625 1.34375,-0.32812 0.57813,-0.1875 0.95313,-0.32813 0.375,-0.15625 0.60937,-0.15625 0.14063,0 0.23438,0.0625 0.0937,0.0469 0.15625,0.1875 0.0625,0.14063 0.0781,0.40625 0.0312,0.25 0.0312,0.64063 0,0.34375 -0.0156,0.59375 -0.0156,0.23437 -0.0469,0.40625 -0.0312,0.17187 -0.0937,0.29687 -0.0625,0.10938 -0.17187,0.21875 -0.0937,0.10938 -0.54688,0.29688 -0.45312,0.1875 -1.15625,0.375 -0.70312,0.17187 -1.60937,0.29687 -0.90625,0.14063 -1.9375,0.14063 -1.85938,0 -3.26563,-0.46875 -1.39062,-0.46875 -2.32812,-1.42188 -0.9375,-0.95312 -1.40625,-2.40625 -0.45313,-1.45312 -0.45313,-3.40625 0,-1.85937 0.48438,-3.34375 0.48437,-1.5 1.40625,-2.53125 0.92187,-1.04687 2.23437,-1.59375 1.32813,-0.54687 2.98438,-0.54687 1.75,0 2.98437,0.51562 1.25,0.51563 2.04688,1.4375 0.79687,0.90625 1.17187,2.15625 0.375,1.25 0.375,2.71875 l 0,0.625 z m -3.8125,-1.125 q 0.0469,-1.65625 -0.67187,-2.59375 -0.70313,-0.95312 -2.1875,-0.95312 -0.75,0 -1.3125,0.28125 -0.54688,0.28125 -0.92188,0.76562 -0.35937,0.46875 -0.5625,1.125 -0.1875,0.64063 -0.21875,1.375 l 5.875,0 z m 22.53125,7.125 q 0,0.6875 -0.0937,1.0625 -0.0781,0.35938 -0.21875,0.51563 -0.14062,0.14062 -0.42187,0.26562 -0.26563,0.10938 -0.64063,0.1875 -0.35937,0.0937 -0.79687,0.14063 -0.42188,0.0469 -0.85938,0.0469 -1.17187,0 -2.03125,-0.29687 -0.85937,-0.29688 -1.42187,-0.90625 -0.5625,-0.625 -0.82813,-1.5625 -0.26562,-0.9375 -0.26562,-2.21875 l 0,-7.14063 -1.67188,0 q -0.29687,0 -0.45312,-0.35937 -0.15625,-0.375 -0.15625,-1.23438 0,-0.45312 0.0312,-0.76562 0.0469,-0.3125 0.125,-0.48438 0.0781,-0.1875 0.1875,-0.26562 0.125,-0.0781 0.28125,-0.0781 l 1.65625,0 0,-3.10937 q 0,-0.15625 0.0781,-0.28125 0.0937,-0.125 0.3125,-0.20313 0.23438,-0.0937 0.60938,-0.125 0.39062,-0.0469 0.95312,-0.0469 0.57813,0 0.95313,0.0469 0.39062,0.0312 0.60937,0.125 0.21875,0.0781 0.3125,0.20313 0.0937,0.125 0.0937,0.28125 l 0,3.10937 3.03125,0 q 0.15625,0 0.26563,0.0781 0.125,0.0781 0.20312,0.26562 0.0781,0.17188 0.10938,0.48438 0.0469,0.3125 0.0469,0.76562 0,0.85938 -0.15625,1.23438 -0.15625,0.35937 -0.45312,0.35937 l -3.04688,0 0,6.54688 q 0,1.14062 0.35938,1.71875 0.35937,0.5625 1.28125,0.5625 0.3125,0 0.5625,-0.0469 0.25,-0.0625 0.4375,-0.125 0.20312,-0.0781 0.32812,-0.125 0.14063,-0.0625 0.25,-0.0625 0.0937,0 0.17188,0.0625 0.0937,0.0469 0.14062,0.21875 0.0469,0.15625 0.0781,0.4375 0.0469,0.28125 0.0469,0.71875 z m 16.9375,-5.73437 q 0,1.78125 -0.46875,3.25 -0.46875,1.46875 -1.42187,2.53125 -0.95313,1.0625 -2.39063,1.64062 -1.4375,0.57813 -3.35937,0.57813 -1.85938,0 -3.23438,-0.51563 -1.375,-0.51562 -2.28125,-1.5 -0.90625,-0.98437 -1.34375,-2.42187 -0.4375,-1.4375 -0.4375,-3.28125 0,-1.78125 0.46875,-3.25 0.48438,-1.48438 1.4375,-2.53125 0.95313,-1.0625 2.375,-1.64063 1.4375,-0.57812 3.35938,-0.57812 1.875,0 3.25,0.51562 1.375,0.5 2.26562,1.48438 0.90625,0.98437 1.34375,2.42187 0.4375,1.4375 0.4375,3.29688 z m -4.04687,0.15625 q 0,-1.03125 -0.17188,-1.89063 -0.15625,-0.875 -0.54687,-1.51562 -0.39063,-0.64063 -1.04688,-1 -0.64062,-0.35938 -1.625,-0.35938 -0.875,0 -1.53125,0.32813 -0.65625,0.3125 -1.07812,0.9375 -0.42188,0.60937 -0.64063,1.48437 -0.20312,0.85938 -0.20312,1.96875 0,1.03125 0.17187,1.90625 0.17188,0.85938 0.54688,1.5 0.39062,0.64063 1.04687,1 0.65625,0.34375 1.625,0.34375 0.89063,0 1.54688,-0.3125 0.65625,-0.32812 1.07812,-0.9375 0.42188,-0.60937 0.625,-1.46875 0.20313,-0.875 0.20313,-1.98437 z m 29.26562,1.42187 q 0,1.07813 -0.29687,1.95313 -0.29688,0.875 -0.82813,1.54687 -0.51562,0.67188 -1.25,1.15625 -0.71875,0.48438 -1.59375,0.79688 -0.875,0.3125 -1.875,0.46875 -0.98437,0.14062 -2.20312,0.14062 l -5.375,0 q -0.51563,0 -0.875,-0.29687 -0.34375,-0.3125 -0.34375,-1 l 0,-17.625 q 0,-0.6875 0.34375,-0.98438 0.35937,-0.3125 0.875,-0.3125 l 5.07812,0 q 1.85938,0 3.14063,0.3125 1.29687,0.3125 2.17187,0.95313 0.89063,0.625 1.35938,1.59375 0.46875,0.96875 0.46875,2.28125 0,0.73437 -0.1875,1.39062 -0.1875,0.64063 -0.54688,1.17188 -0.35937,0.53125 -0.89062,0.9375 -0.51563,0.40625 -1.1875,0.65625 0.85937,0.15625 1.57812,0.54687 0.73438,0.39063 1.26563,1.01563 0.54687,0.60937 0.85937,1.4375 0.3125,0.82812 0.3125,1.85937 z m -5.3125,-8.51562 q 0,-0.60938 -0.1875,-1.09375 -0.1875,-0.48438 -0.5625,-0.79688 -0.375,-0.32812 -0.95312,-0.5 -0.5625,-0.17187 -1.51563,-0.17187 l -2.07812,0 0,5.25 2.29687,0 q 0.89063,0 1.42188,-0.20313 0.53125,-0.21875 0.875,-0.57812 0.35937,-0.375 0.53125,-0.85938 0.17187,-0.5 0.17187,-1.04687 z m 1.04688,8.65625 q 0,-0.70313 -0.23438,-1.25 -0.23437,-0.5625 -0.6875,-0.9375 -0.45312,-0.375 -1.15625,-0.57813 -0.70312,-0.20312 -1.82812,-0.20312 l -2.4375,0 0,5.75 2.96875,0 q 0.85937,0 1.4375,-0.17188 0.59375,-0.1875 1.01562,-0.53125 0.4375,-0.35937 0.67188,-0.875 0.25,-0.53125 0.25,-1.20312 z m 21.42189,-1.71875 q 0,1.78125 -0.46875,3.25 -0.46875,1.46875 -1.42189,2.53125 -0.95313,1.0625 -2.39063,1.64062 -1.4375,0.57813 -3.35937,0.57813 -1.85938,0 -3.23438,-0.51563 -1.375,-0.51562 -2.28125,-1.5 -0.90625,-0.98437 -1.34375,-2.42187 -0.4375,-1.4375 -0.4375,-3.28125 0,-1.78125 0.46875,-3.25 0.48438,-1.48438 1.4375,-2.53125 0.95313,-1.0625 2.375,-1.64063 1.4375,-0.57812 3.35938,-0.57812 1.875,0 3.25,0.51562 1.375,0.5 2.26562,1.48438 0.90627,0.98437 1.34377,2.42187 0.4375,1.4375 0.4375,3.29688 z m -4.04689,0.15625 q 0,-1.03125 -0.17188,-1.89063 -0.15625,-0.875 -0.54687,-1.51562 -0.39063,-0.64063 -1.04688,-1 -0.64062,-0.35938 -1.625,-0.35938 -0.875,0 -1.53125,0.32813 -0.65625,0.3125 -1.07812,0.9375 -0.42188,0.60937 -0.64063,1.48437 -0.20312,0.85938 -0.20312,1.96875 0,1.03125 0.17187,1.90625 0.17188,0.85938 0.54688,1.5 0.39062,0.64063 1.04687,1 0.65625,0.34375 1.625,0.34375 0.89063,0 1.54688,-0.3125 0.65625,-0.32812 1.07812,-0.9375 0.42188,-0.60937 0.625,-1.46875 0.20313,-0.875 0.20313,-1.98437 z m 20.37501,6.95312 q 0,0.15625 -0.0781,0.28125 -0.0781,0.10938 -0.28125,0.1875 -0.1875,0.0781 -0.51563,0.10938 -0.3125,0.0469 -0.79687,0.0469 -0.51563,0 -0.84375,-0.0469 -0.3125,-0.0312 -0.5,-0.10938 -0.1875,-0.0781 -0.26563,-0.1875 -0.0781,-0.125 -0.0781,-0.28125 l 0,-1.60937 q -1.15625,1.25 -2.35938,1.875 -1.1875,0.625 -2.46875,0.625 -1.4375,0 -2.42187,-0.46875 -0.96875,-0.46875 -1.57813,-1.28125 -0.59375,-0.8125 -0.85937,-1.875 -0.25,-1.07813 -0.25,-2.67188 l 0,-8.53125 q 0,-0.15625 0.0781,-0.26562 0.0937,-0.125 0.3125,-0.20313 0.23438,-0.0781 0.60938,-0.10937 0.39062,-0.0469 0.95312,-0.0469 0.57813,0 0.95313,0.0469 0.375,0.0312 0.59375,0.10937 0.23437,0.0781 0.32812,0.20313 0.0937,0.10937 0.0937,0.26562 l 0,7.875 q 0,1.09375 0.14063,1.67188 0.14062,0.57812 0.42187,1 0.29688,0.40625 0.73438,0.64062 0.45312,0.21875 1.04687,0.21875 0.75,0 1.5,-0.54687 0.76563,-0.54688 1.625,-1.59375 l 0,-9.26563 q 0,-0.15625 0.0781,-0.26562 0.0937,-0.125 0.3125,-0.20313 0.23437,-0.0781 0.60937,-0.10937 0.375,-0.0469 0.95313,-0.0469 0.57812,0 0.95312,0.0469 0.375,0.0312 0.59375,0.10937 0.21875,0.0781 0.3125,0.20313 0.0937,0.10937 0.0937,0.26562 l 0,13.9375 z m 17.26563,0 q 0,0.15625 -0.0937,0.28125 -0.0937,0.10938 -0.3125,0.1875 -0.21875,0.0781 -0.60938,0.10938 -0.375,0.0469 -0.9375,0.0469 -0.57812,0 -0.96875,-0.0469 -0.375,-0.0312 -0.59375,-0.10938 -0.21875,-0.0781 -0.3125,-0.1875 -0.0937,-0.125 -0.0937,-0.28125 l 0,-7.95312 q 0,-1.01563 -0.15625,-1.59375 -0.14062,-0.57813 -0.42187,-0.98438 -0.28125,-0.42187 -0.73438,-0.64062 -0.4375,-0.23438 -1.03125,-0.23438 -0.75,0 -1.51562,0.54688 -0.76563,0.54687 -1.59375,1.59375 l 0,9.26562 q 0,0.15625 -0.0937,0.28125 -0.0937,0.10938 -0.32813,0.1875 -0.21875,0.0781 -0.59375,0.10938 -0.375,0.0469 -0.95312,0.0469 -0.57813,0 -0.95313,-0.0469 -0.375,-0.0312 -0.60937,-0.10938 -0.21875,-0.0781 -0.3125,-0.1875 -0.0937,-0.125 -0.0937,-0.28125 l 0,-13.9375 q 0,-0.15625 0.0781,-0.26562 0.0781,-0.125 0.28125,-0.20313 0.20313,-0.0781 0.51563,-0.10937 0.32812,-0.0469 0.8125,-0.0469 0.5,0 0.82812,0.0469 0.32813,0.0312 0.5,0.10937 0.1875,0.0781 0.26563,0.20313 0.0781,0.10937 0.0781,0.26562 l 0,1.60938 q 1.15625,-1.25 2.34375,-1.875 1.20313,-0.625 2.5,-0.625 1.42188,0 2.39063,0.46875 0.98437,0.46875 1.57812,1.28125 0.60938,0.79687 0.875,1.875 0.26563,1.07812 0.26563,2.59375 l 0,8.60937 z m 17.07812,0 q 0,0.17188 -0.0781,0.29688 -0.0781,0.10937 -0.26563,0.1875 -0.1875,0.0781 -0.51562,0.10937 -0.3125,0.0312 -0.78125,0.0312 -0.5,0 -0.8125,-0.0312 -0.3125,-0.0312 -0.51563,-0.10937 -0.1875,-0.0781 -0.28125,-0.1875 -0.0781,-0.125 -0.0781,-0.29688 l 0,-1.54687 q -1.07813,1.15625 -2.26563,1.79687 -1.17187,0.64063 -2.60937,0.64063 -1.59375,0 -2.70313,-0.60938 -1.09375,-0.625 -1.79687,-1.67187 -0.6875,-1.04688 -1,-2.4375 -0.3125,-1.40625 -0.3125,-2.95313 0,-1.85937 0.39062,-3.34375 0.40625,-1.48437 1.17188,-2.53125 0.76562,-1.04687 1.90625,-1.60937 1.14062,-0.5625 2.625,-0.5625 1.17187,0 2.125,0.48437 0.95312,0.46875 1.89062,1.39063 l 0,-7.54688 q 0,-0.15625 0.0781,-0.28125 0.0937,-0.125 0.3125,-0.20312 0.23437,-0.0937 0.60937,-0.14063 0.375,-0.0469 0.95313,-0.0469 0.57812,0 0.95312,0.0469 0.375,0.0469 0.59375,0.14063 0.21875,0.0781 0.3125,0.20312 0.0937,0.125 0.0937,0.28125 l 0,20.5 z m -3.90625,-9.3125 q -0.84375,-1.0625 -1.625,-1.625 -0.76562,-0.5625 -1.60937,-0.5625 -0.76563,0 -1.32813,0.39063 -0.54687,0.375 -0.89062,1.01562 -0.32813,0.64063 -0.5,1.4375 -0.15625,0.78125 -0.15625,1.60938 0,0.875 0.14062,1.70312 0.14063,0.82813 0.45313,1.48438 0.32812,0.64062 0.85937,1.03125 0.53125,0.39062 1.34375,0.39062 0.40625,0 0.78125,-0.10937 0.39063,-0.125 0.78125,-0.39063 0.40625,-0.26562 0.82813,-0.6875 0.42187,-0.4375 0.92187,-1.0625 l 0,-4.625 z m 19.73438,9.35938 q 0,0.21875 -0.15625,0.34375 -0.15625,0.125 -0.5,0.17187 -0.32813,0.0625 -0.98438,0.0625 -0.70312,0 -1.03125,-0.0625 -0.3125,-0.0469 -0.45312,-0.17187 -0.125,-0.125 -0.125,-0.34375 l 0,-1.10938 q -0.85938,0.92188 -1.96875,1.4375 -1.09375,0.51563 -2.4375,0.51563 -1.10938,0 -2.04688,-0.29688 -0.92187,-0.28125 -1.60937,-0.84375 -0.67188,-0.57812 -1.04688,-1.42187 -0.375,-0.84375 -0.375,-1.96875 0,-1.21875 0.46875,-2.10938 0.48438,-0.90625 1.42188,-1.48437 0.95312,-0.59375 2.35937,-0.875 1.40625,-0.28125 3.26563,-0.28125 l 1.35937,0 0,-0.84375 q 0,-0.65625 -0.14062,-1.14063 -0.125,-0.5 -0.4375,-0.82812 -0.29688,-0.32813 -0.8125,-0.48438 -0.5,-0.15625 -1.25,-0.15625 -0.98438,0 -1.76563,0.21875 -0.76562,0.21875 -1.35937,0.48438 -0.59375,0.26562 -1,0.48437 -0.39063,0.21875 -0.64063,0.21875 -0.17187,0 -0.3125,-0.10937 -0.125,-0.10938 -0.21875,-0.3125 -0.0781,-0.20313 -0.125,-0.5 -0.0469,-0.29688 -0.0469,-0.65625 0,-0.48438 0.0781,-0.76563 0.0781,-0.28125 0.29688,-0.5 0.21875,-0.23437 0.76562,-0.5 0.54688,-0.28125 1.28125,-0.51562 0.73438,-0.23438 1.59375,-0.375 0.875,-0.15625 1.79688,-0.15625 1.64062,0 2.79687,0.32812 1.17188,0.3125 1.92188,0.98438 0.75,0.65625 1.09375,1.70312 0.34375,1.04688 0.34375,2.48438 l 0,9.375 z m -3.85938,-5.96875 -1.5,0 q -0.95312,0 -1.625,0.14062 -0.67187,0.14063 -1.09375,0.42188 -0.42187,0.28125 -0.625,0.6875 -0.1875,0.39062 -0.1875,0.90625 0,0.875 0.54688,1.375 0.5625,0.5 1.54687,0.5 0.82813,0 1.51563,-0.42188 0.70312,-0.42187 1.42187,-1.23437 l 0,-2.375 z m 16.73438,-6.71875 q 0,0.5625 -0.0312,0.92187 -0.0312,0.35938 -0.0937,0.5625 -0.0625,0.20313 -0.17188,0.28125 -0.0937,0.0781 -0.25,0.0781 -0.125,0 -0.28125,-0.0469 -0.15625,-0.0625 -0.35937,-0.125 -0.1875,-0.0625 -0.42188,-0.10937 -0.23437,-0.0625 -0.51562,-0.0625 -0.32813,0 -0.65625,0.14062 -0.32813,0.125 -0.6875,0.40625 -0.34375,0.28125 -0.73438,0.75 -0.375,0.46875 -0.8125,1.15625 l 0,8.6875 q 0,0.15625 -0.0937,0.28125 -0.0937,0.10938 -0.32812,0.1875 -0.21875,0.0781 -0.59375,0.10938 -0.375,0.0469 -0.95313,0.0469 -0.57812,0 -0.95312,-0.0469 -0.375,-0.0312 -0.60938,-0.10938 -0.21875,-0.0781 -0.3125,-0.1875 -0.0937,-0.125 -0.0937,-0.28125 l 0,-13.9375 q 0,-0.15625 0.0781,-0.26562 0.0781,-0.125 0.28125,-0.20313 0.20312,-0.0781 0.51562,-0.10937 0.32813,-0.0469 0.8125,-0.0469 0.5,0 0.82813,0.0469 0.32812,0.0312 0.5,0.10937 0.1875,0.0781 0.26562,0.20313 0.0781,0.10937 0.0781,0.26562 l 0,1.73438 q 0.54687,-0.78125 1.03125,-1.28125 0.48437,-0.51563 0.92187,-0.8125 0.4375,-0.29688 0.875,-0.40625 0.4375,-0.125 0.875,-0.125 0.20313,0 0.4375,0.0312 0.23438,0.0156 0.48438,0.0781 0.25,0.0469 0.4375,0.125 0.1875,0.0625 0.26562,0.14063 0.0937,0.0781 0.125,0.17187 0.0469,0.0937 0.0781,0.26563 0.0312,0.15625 0.0469,0.48437 0.0156,0.32813 0.0156,0.89063 z m 10.5,13.17187 -1.6875,4.9375 q -0.14063,0.39063 -0.76563,0.5625 -0.625,0.17188 -1.82812,0.17188 -0.625,0 -1,-0.0625 -0.375,-0.0469 -0.5625,-0.17188 -0.1875,-0.125 -0.20313,-0.3125 -0.0156,-0.1875 0.0937,-0.45312 l 1.85938,-4.67188 q -0.20313,-0.0937 -0.375,-0.28125 -0.15625,-0.20312 -0.23438,-0.42187 l -4.79687,-12.8125 q -0.20313,-0.54688 -0.20313,-0.82813 0,-0.29687 0.1875,-0.45312 0.1875,-0.17188 0.625,-0.23438 0.45313,-0.0625 1.1875,-0.0625 0.67188,0 1.0625,0.0312 0.39063,0.0156 0.60938,0.10938 0.21875,0.0937 0.32812,0.29687 0.10938,0.1875 0.21875,0.54688 l 3.28125,9.32812 0.0469,0 3,-9.51562 q 0.0937,-0.40625 0.23437,-0.53125 0.15625,-0.14063 0.5,-0.20313 0.34375,-0.0625 1.20313,-0.0625 0.67187,0 1.10937,0.0625 0.45313,0.0625 0.65625,0.23438 0.21875,0.17187 0.21875,0.46875 0,0.28125 -0.125,0.67187 l -4.64062,13.65625 z" />
    </g>
  </g>
</svg>
