<?xml version="1.0" encoding="UTF-8" standalone="no"?>
<!-- Created with Inkscape (http://www.inkscape.org/) -->

<svg
   xmlns:dc="http://purl.org/dc/elements/1.1/"
   xmlns:cc="http://creativecommons.org/ns#"
   xmlns:rdf="http://www.w3.org/1999/02/22-rdf-syntax-ns#"
   xmlns:svg="http://www.w3.org/2000/svg"
   xmlns="http://www.w3.org/2000/svg"
   xmlns:sodipodi="http://sodipodi.sourceforge.net/DTD/sodipodi-0.dtd"
   xmlns:inkscape="http://www.inkscape.org/namespaces/inkscape"
   width="91.044189mm"
   height="79.965286mm"
   viewBox="0 0 322.59754 283.34156"
   id="svg4875"
   version="1.1"
   inkscape:version="0.91 r13725"
   sodipodi:docname="pauls_bvh.svg">
  <defs
     id="defs4877" />
  <sodipodi:namedview
     id="base"
     pagecolor="#ffffff"
     bordercolor="#666666"
     borderopacity="1.0"
     inkscape:pageopacity="0.0"
     inkscape:pageshadow="2"
     inkscape:zoom="1.4"
     inkscape:cx="98.814163"
     inkscape:cy="265.17723"
     inkscape:document-units="px"
     inkscape:current-layer="layer1"
     showgrid="false"
     fit-margin-top="0"
     fit-margin-left="0"
     fit-margin-right="0"
     fit-margin-bottom="0"
     inkscape:window-width="1680"
     inkscape:window-height="1013"
     inkscape:window-x="0"
     inkscape:window-y="0"
     inkscape:window-maximized="1" />
  <metadata
     id="metadata4880">
    <rdf:RDF>
      <cc:Work
         rdf:about="">
        <dc:format>image/svg+xml</dc:format>
        <dc:type
           rdf:resource="http://purl.org/dc/dcmitype/StillImage" />
        <dc:title></dc:title>
      </cc:Work>
    </rdf:RDF>
  </metadata>
  <g
     inkscape:label="Layer 1"
     inkscape:groupmode="layer"
     id="layer1"
     transform="translate(-169.85598,-452.48666)">
    <g
       id="g4260"
       transform="translate(22.451249,0)">
      <path
         style="fill:#000000;fill-opacity:0;fill-rule:nonzero;stroke:none;stroke-linecap:square;stroke-miterlimit:10"
         inkscape:connector-curvature="0"
         id="path4569"
         d="m 375.40433,648.87942 c -8.52954,-16.8985 -5.7865,-37.29852 6.90607,-51.3371 16.95691,-18.75836 45.91504,-20.216 64.6817,-3.25165 5.19391,4.69513 9.24286,10.52155 11.83581,17.02607" />
      <path
         style="fill:#000000;fill-opacity:0;fill-rule:nonzero;stroke:none;stroke-linecap:square;stroke-miterlimit:10"
         inkscape:connector-curvature="0"
         id="path4571"
         d="m 375.40433,648.87942 c -8.52954,-16.8985 -5.7865,-37.29852 6.90607,-51.3371 16.95691,-18.75836 45.91504,-20.216 64.6817,-3.25165 5.19391,4.69513 9.24286,10.52155 11.83581,17.02607 l -42.53998,16.94006 z" />
      <path
         style="fill:none;fill-rule:nonzero;stroke:#eeece1;stroke-width:1.33333337;stroke-linecap:butt;stroke-linejoin:round;stroke-miterlimit:10"
         inkscape:connector-curvature="0"
         id="path4573"
         d="m 375.40433,648.87942 c -8.52954,-16.8985 -5.7865,-37.29852 6.90607,-51.3371 16.95691,-18.75836 45.91504,-20.216 64.6817,-3.25165 5.19391,4.69513 9.24286,10.52155 11.83581,17.02607" />
      <path
         style="fill:#000000;fill-opacity:0;fill-rule:nonzero;stroke:none;stroke-linecap:square;stroke-miterlimit:10"
         inkscape:connector-curvature="0"
         id="path4575"
         d="m 375.49917,648.86488 -4.92773,-21.45178 3.65606,-16.44654 9.77637,-15.25396 15.73785,-10.48761 17.88434,-2.86005 18.12225,4.05152 13.35413,10.24926 10.96893,15.96942" />
      <path
         style="fill:none;fill-rule:nonzero;stroke:#000000;stroke-width:2;stroke-linecap:butt;stroke-linejoin:round;stroke-miterlimit:10"
         inkscape:connector-curvature="0"
         id="path4577"
         d="m 375.49917,648.86488 -4.92773,-21.45178 3.65606,-16.44654 9.77637,-15.25396 15.73785,-10.48761 17.88434,-2.86005 18.12225,4.05152 13.35413,10.24926 10.96893,15.96942" />
      <path
         style="fill:#000000;fill-opacity:0;fill-rule:nonzero;stroke:none;stroke-linecap:square;stroke-miterlimit:10"
         inkscape:connector-curvature="0"
         id="path4579"
         d="m 385.29923,577.80738 14.84442,5.50787 -24.46661,65.94055 -14.84442,-5.50787 z" />
      <path
         style="fill:none;fill-rule:nonzero;stroke:#fe0049;stroke-width:1;stroke-linecap:butt;stroke-miterlimit:8;stroke-dasharray:4, 3"
         inkscape:connector-curvature="0"
         id="path4581"
         d="m 385.29923,577.80738 14.84442,5.50787 -24.46661,65.94055 -14.84442,-5.50787 z"
         stroke-miterlimit="8.0" />
      <path
         style="fill:#000000;fill-opacity:0;fill-rule:nonzero;stroke:none;stroke-linecap:square;stroke-miterlimit:10"
         inkscape:connector-curvature="0"
         id="path4583"
         d="m 466.47891,599.52068 -6.17261,13.67108 -61.97564,-27.98248 6.1726,-13.67108 z" />
      <path
         style="fill:none;fill-rule:nonzero;stroke:#fe0049;stroke-width:1;stroke-linecap:butt;stroke-miterlimit:8;stroke-dasharray:4, 3"
         inkscape:connector-curvature="0"
         id="path4585"
         d="m 466.47891,599.52068 -6.17261,13.67108 -61.97564,-27.98248 6.1726,-13.67108 z"
         stroke-miterlimit="8.0" />
      <path
         style="fill:#000000;fill-opacity:0;fill-rule:nonzero;stroke:none;stroke-linecap:square;stroke-miterlimit:10"
         inkscape:connector-curvature="0"
         id="path4587"
         d="m 373.23767,535.21273 c -8.52954,-16.89847 -5.7865,-37.29849 6.90607,-51.33707 16.95691,-18.75839 45.9151,-20.21603 64.68176,-3.25164 5.19391,4.69512 9.24286,10.52151 11.83581,17.02603" />
      <path
         style="fill:#000000;fill-opacity:0;fill-rule:nonzero;stroke:none;stroke-linecap:square;stroke-miterlimit:10"
         inkscape:connector-curvature="0"
         id="path4589"
         d="m 373.23767,535.21273 c -8.52954,-16.89847 -5.7865,-37.29849 6.90607,-51.33707 16.95691,-18.75839 45.9151,-20.21603 64.68176,-3.25164 5.19391,4.69512 9.24286,10.52151 11.83581,17.02603 l -42.53998,16.94009 z" />
      <path
         style="fill:none;fill-rule:nonzero;stroke:#eeece1;stroke-width:1.33333337;stroke-linecap:butt;stroke-linejoin:round;stroke-miterlimit:10"
         inkscape:connector-curvature="0"
         id="path4591"
         d="m 373.23767,535.21273 c -8.52954,-16.89847 -5.7865,-37.29849 6.90607,-51.33707 16.95691,-18.75839 45.9151,-20.21603 64.68176,-3.25164 5.19391,4.69512 9.24286,10.52151 11.83581,17.02603" />
      <path
         style="fill:#000000;fill-opacity:0;fill-rule:nonzero;stroke:none;stroke-linecap:square;stroke-miterlimit:10"
         inkscape:connector-curvature="0"
         id="path4593"
         d="m 373.33247,535.19824 -4.92773,-21.45178 3.65606,-16.44657 9.77643,-15.25396 15.73779,-10.48761 17.88434,-2.86005 18.12225,4.05151 13.35419,10.2493 10.96893,15.96942" />
      <path
         style="fill:none;fill-rule:nonzero;stroke:#000000;stroke-width:2;stroke-linecap:butt;stroke-linejoin:round;stroke-miterlimit:10"
         inkscape:connector-curvature="0"
         id="path4595"
         d="m 373.33247,535.19824 -4.92773,-21.45178 3.65606,-16.44657 9.77643,-15.25396 15.73779,-10.48761 17.88434,-2.86005 18.12225,4.05151 13.35419,10.2493 10.96893,15.96942" />
      <path
         style="fill:#000000;fill-opacity:0;fill-rule:nonzero;stroke:none;stroke-linecap:square;stroke-miterlimit:10"
         inkscape:connector-curvature="0"
         id="path4597"
         d="m 438.78567,453.14442 19.7124,45.40562 -85.30755,37.03537 -19.71241,-45.40561 z" />
      <path
         style="fill:none;fill-rule:nonzero;stroke:#fe0049;stroke-width:1;stroke-linecap:butt;stroke-miterlimit:8;stroke-dasharray:4, 3"
         inkscape:connector-curvature="0"
         id="path4599"
         d="m 438.78567,453.14442 19.7124,45.40562 -85.30755,37.03537 -19.71241,-45.40561 z"
         stroke-miterlimit="8.0" />
      <path
         style="fill:#000000;fill-opacity:0;fill-rule:nonzero;stroke:none;stroke-linecap:square;stroke-miterlimit:10"
         inkscape:connector-curvature="0"
         id="path4601"
         d="m 381.90427,735.21273 c -8.52954,-16.89844 -5.7865,-37.29852 6.90607,-51.33704 16.95697,-18.75842 45.9151,-20.21606 64.68176,-3.25164 5.19397,4.69506 9.24292,10.52148 11.83587,17.026" />
      <path
         style="fill:#000000;fill-opacity:0;fill-rule:nonzero;stroke:none;stroke-linecap:square;stroke-miterlimit:10"
         inkscape:connector-curvature="0"
         id="path4603"
         d="m 381.90427,735.21273 c -8.52954,-16.89844 -5.7865,-37.29852 6.90607,-51.33704 16.95697,-18.75842 45.9151,-20.21606 64.68176,-3.25164 5.19397,4.69506 9.24292,10.52148 11.83587,17.026 l -42.54004,16.94012 z" />
      <path
         style="fill:none;fill-rule:nonzero;stroke:#eeece1;stroke-width:1.33333337;stroke-linecap:butt;stroke-linejoin:round;stroke-miterlimit:10"
         inkscape:connector-curvature="0"
         id="path4605"
         d="m 381.90427,735.21273 c -8.52954,-16.89844 -5.7865,-37.29852 6.90607,-51.33704 16.95697,-18.75842 45.9151,-20.21606 64.68176,-3.25164 5.19397,4.69506 9.24292,10.52148 11.83587,17.026" />
      <path
         style="fill:#000000;fill-opacity:0;fill-rule:nonzero;stroke:none;stroke-linecap:square;stroke-miterlimit:10"
         inkscape:connector-curvature="0"
         id="path4607"
         d="m 381.99912,735.19818 -4.92773,-21.45178 3.65606,-16.44654 9.77637,-15.25396 15.73785,-10.48761 17.88434,-2.86005 18.12225,4.05152 13.35419,10.24932 10.969,15.96936" />
      <path
         style="fill:none;fill-rule:nonzero;stroke:#000000;stroke-width:2;stroke-linecap:butt;stroke-linejoin:round;stroke-miterlimit:10"
         inkscape:connector-curvature="0"
         id="path4609"
         d="m 381.99912,735.19818 -4.92773,-21.45178 3.65606,-16.44654 9.77637,-15.25396 15.73785,-10.48761 17.88434,-2.86005 18.12225,4.05152 13.35419,10.24932 10.969,15.96936" />
      <path
         style="fill:#000000;fill-opacity:0;fill-rule:nonzero;stroke:none;stroke-linecap:square;stroke-miterlimit:10"
         inkscape:connector-curvature="0"
         id="path4611"
         d="m 375.37021,696.67878 5.66089,-0.25519 1.74139,38.62738 -5.66089,0.25525 z" />
      <path
         style="fill:none;fill-rule:nonzero;stroke:#fe0049;stroke-width:1;stroke-linecap:butt;stroke-miterlimit:8;stroke-dasharray:4, 3"
         inkscape:connector-curvature="0"
         id="path4613"
         d="m 375.37021,696.67878 5.66089,-0.25519 1.74139,38.62738 -5.66089,0.25525 z"
         stroke-miterlimit="8.0" />
      <path
         style="fill:#000000;fill-opacity:0;fill-rule:nonzero;stroke:none;stroke-linecap:square;stroke-miterlimit:10"
         inkscape:connector-curvature="0"
         id="path4615"
         d="m 402.9946,668.69723 3.15802,3.20581 -25.17114,24.79627 -3.15802,-3.20575 z" />
      <path
         style="fill:none;fill-rule:nonzero;stroke:#fe0049;stroke-width:1;stroke-linecap:butt;stroke-miterlimit:8;stroke-dasharray:4, 3"
         inkscape:connector-curvature="0"
         id="path4617"
         d="m 402.9946,668.69723 3.15802,3.20581 -25.17114,24.79627 -3.15802,-3.20575 z"
         stroke-miterlimit="8.0" />
      <path
         style="fill:#000000;fill-opacity:0;fill-rule:nonzero;stroke:none;stroke-linecap:square;stroke-miterlimit:10"
         inkscape:connector-curvature="0"
         id="path4619"
         d="m 442.07147,667.86498 0,4.66669 -37.33337,0 0,-4.66669 z" />
      <path
         style="fill:none;fill-rule:nonzero;stroke:#fe0049;stroke-width:1;stroke-linecap:butt;stroke-miterlimit:8;stroke-dasharray:4, 3"
         inkscape:connector-curvature="0"
         id="path4621"
         d="m 442.07147,667.86498 0,4.66669 -37.33337,0 0,-4.66669 z"
         stroke-miterlimit="8.0" />
      <path
         style="fill:#000000;fill-opacity:0;fill-rule:nonzero;stroke:none;stroke-linecap:square;stroke-miterlimit:10"
         inkscape:connector-curvature="0"
         id="path4623"
         d="m 469.2955,696.03598 -3.27838,3.08258 -25.00311,-26.59125 3.27832,-3.08258 z" />
      <path
         style="fill:none;fill-rule:nonzero;stroke:#fe0049;stroke-width:1;stroke-linecap:butt;stroke-miterlimit:8;stroke-dasharray:4, 3"
         inkscape:connector-curvature="0"
         id="path4625"
         d="m 469.2955,696.03598 -3.27838,3.08258 -25.00311,-26.59125 3.27832,-3.08258 z"
         stroke-miterlimit="8.0" />
      <path
         style="fill:#000000;fill-opacity:0;fill-rule:nonzero;stroke:none;stroke-linecap:square;stroke-miterlimit:10"
         inkscape:connector-curvature="0"
         id="path4627"
         d="m 207.13247,580.14068 14.84454,5.50793 -24.46661,65.94061 -14.84454,-5.50793 z" />
      <path
         style="fill:none;fill-rule:nonzero;stroke:#fe0049;stroke-width:1;stroke-linecap:butt;stroke-miterlimit:8;stroke-dasharray:4, 3"
         inkscape:connector-curvature="0"
         id="path4629"
         d="m 207.13247,580.14068 14.84454,5.50793 -24.46661,65.94061 -14.84454,-5.50793 z"
         stroke-miterlimit="8.0" />
      <path
         style="fill:#000000;fill-opacity:0;fill-rule:nonzero;stroke:none;stroke-linecap:square;stroke-miterlimit:10"
         inkscape:connector-curvature="0"
         id="path4631"
         d="m 327.97887,627.18738 -6.17255,13.67108 -61.9757,-27.98248 6.1726,-13.67108 z" />
      <path
         style="fill:none;fill-rule:nonzero;stroke:#fe0049;stroke-width:1;stroke-linecap:butt;stroke-miterlimit:8;stroke-dasharray:4, 3"
         inkscape:connector-curvature="0"
         id="path4633"
         d="m 327.97887,627.18738 -6.17255,13.67108 -61.9757,-27.98248 6.1726,-13.67108 z"
         stroke-miterlimit="8.0" />
      <path
         style="fill:#000000;fill-opacity:0;fill-rule:nonzero;stroke:none;stroke-linecap:square;stroke-miterlimit:10"
         inkscape:connector-curvature="0"
         id="path4635"
         d="m 279.36897,467.39443 19.71649,45.41733 -85.32281,37.03937 -19.71656,-45.41733 z" />
      <path
         style="fill:none;fill-rule:nonzero;stroke:#fe0049;stroke-width:1;stroke-linecap:butt;stroke-miterlimit:8;stroke-dasharray:4, 3"
         inkscape:connector-curvature="0"
         id="path4637"
         d="m 279.36897,467.39443 19.71649,45.41733 -85.32281,37.03937 -19.71656,-45.41733 z"
         stroke-miterlimit="8.0" />
      <path
         style="fill:#000000;fill-opacity:0;fill-rule:nonzero;stroke:none;stroke-linecap:square;stroke-miterlimit:10"
         inkscape:connector-curvature="0"
         id="path4639"
         d="m 161.70367,675.34554 5.66089,-0.25525 1.74139,38.62744 -5.66089,0.25519 z" />
      <path
         style="fill:none;fill-rule:nonzero;stroke:#fe0049;stroke-width:1;stroke-linecap:butt;stroke-miterlimit:8;stroke-dasharray:4, 3"
         inkscape:connector-curvature="0"
         id="path4641"
         d="m 161.70367,675.34554 5.66089,-0.25525 1.74139,38.62744 -5.66089,0.25519 z"
         stroke-miterlimit="8.0" />
      <path
         style="fill:#000000;fill-opacity:0;fill-rule:nonzero;stroke:none;stroke-linecap:square;stroke-miterlimit:10"
         inkscape:connector-curvature="0"
         id="path4643"
         d="m 228.07787,678.28058 3.15808,3.20581 -25.17114,24.79627 -3.15808,-3.20575 z" />
      <path
         style="fill:none;fill-rule:nonzero;stroke:#fe0049;stroke-width:1;stroke-linecap:butt;stroke-miterlimit:8;stroke-dasharray:4, 3"
         inkscape:connector-curvature="0"
         id="path4645"
         d="m 228.07787,678.28058 3.15808,3.20581 -25.17114,24.79627 -3.15808,-3.20575 z"
         stroke-miterlimit="8.0" />
      <path
         style="fill:#000000;fill-opacity:0;fill-rule:nonzero;stroke:none;stroke-linecap:square;stroke-miterlimit:10"
         inkscape:connector-curvature="0"
         id="path4647"
         d="m 288.40477,684.19828 0,4.66669 -37.33337,0 0,-4.66669 z" />
      <path
         style="fill:none;fill-rule:nonzero;stroke:#fe0049;stroke-width:1;stroke-linecap:butt;stroke-miterlimit:8;stroke-dasharray:4, 3"
         inkscape:connector-curvature="0"
         id="path4649"
         d="m 288.40477,684.19828 0,4.66669 -37.33337,0 0,-4.66669 z"
         stroke-miterlimit="8.0" />
      <path
         style="fill:#000000;fill-opacity:0;fill-rule:nonzero;stroke:none;stroke-linecap:square;stroke-miterlimit:10"
         inkscape:connector-curvature="0"
         id="path4651"
         d="m 339.62882,707.70268 -3.27832,3.08252 -25.00317,-26.59131 3.27838,-3.08252 z" />
      <path
         style="fill:none;fill-rule:nonzero;stroke:#fe0049;stroke-width:1;stroke-linecap:butt;stroke-miterlimit:8;stroke-dasharray:4, 3"
         inkscape:connector-curvature="0"
         id="path4653"
         d="m 339.62882,707.70268 -3.27832,3.08252 -25.00317,-26.59131 3.27838,-3.08252 z"
         stroke-miterlimit="8.0" />
      <path
         style="fill:#000000;fill-opacity:0;fill-rule:nonzero;stroke:none;stroke-linecap:square;stroke-miterlimit:10"
         inkscape:connector-curvature="0"
         id="path4655"
         d="m 246.40477,547.36492 -27.66669,27.66666" />
      <path
         style="fill:none;fill-rule:evenodd;stroke:#c0504d;stroke-width:1;stroke-linecap:butt;stroke-linejoin:round;stroke-miterlimit:10"
         inkscape:connector-curvature="0"
         id="path4657"
         d="m 246.40477,547.36492 -23.42401,23.42401" />
      <path
         style="fill:#c0504d;fill-rule:evenodd;stroke:#c0504d;stroke-width:1;stroke-linecap:butt;stroke-miterlimit:10"
         inkscape:connector-curvature="0"
         id="path4659"
         d="m 221.81277,569.621 -2.04102,4.37689 4.3769,-2.04098 z" />
      <path
         style="fill:#000000;fill-opacity:0;fill-rule:nonzero;stroke:none;stroke-linecap:square;stroke-miterlimit:10"
         inkscape:connector-curvature="0"
         id="path4661"
         d="m 246.40477,547.36492 23.33331,33.99997" />
      <path
         style="fill:none;fill-rule:evenodd;stroke:#c0504d;stroke-width:1;stroke-linecap:butt;stroke-linejoin:round;stroke-miterlimit:10"
         inkscape:connector-curvature="0"
         id="path4663"
         d="M 246.40477,547.36492 266.343,576.41781" />
      <path
         style="fill:#c0504d;fill-rule:evenodd;stroke:#c0504d;stroke-width:1;stroke-linecap:butt;stroke-miterlimit:10"
         inkscape:connector-curvature="0"
         id="path4665"
         d="m 264.98111,577.35244 3.92975,2.80713 -1.206,-4.67633 z" />
      <path
         style="fill:#000000;fill-opacity:0;fill-rule:nonzero;stroke:none;stroke-linecap:square;stroke-miterlimit:10"
         inkscape:connector-curvature="0"
         id="path4667"
         d="m 194.48752,655.69828 -18.08276,11.93463" />
      <path
         style="fill:none;fill-rule:evenodd;stroke:#c0504d;stroke-width:1;stroke-linecap:butt;stroke-linejoin:round;stroke-miterlimit:10"
         inkscape:connector-curvature="0"
         id="path4669"
         d="m 194.48752,655.69828 -13.07513,8.62958" />
      <path
         style="fill:#c0504d;fill-rule:evenodd;stroke:#c0504d;stroke-width:1;stroke-linecap:butt;stroke-miterlimit:10"
         inkscape:connector-curvature="0"
         id="path4671"
         d="m 180.50254,662.94928 -2.87769,3.8783 4.69739,-1.12122 z" />
      <path
         style="fill:#000000;fill-opacity:0;fill-rule:nonzero;stroke:none;stroke-linecap:square;stroke-miterlimit:10"
         inkscape:connector-curvature="0"
         id="path4673"
         d="m 194.48752,655.69828 15.25055,14.66663" />
      <path
         style="fill:none;fill-rule:evenodd;stroke:#c0504d;stroke-width:1;stroke-linecap:butt;stroke-linejoin:round;stroke-miterlimit:10"
         inkscape:connector-curvature="0"
         id="path4675"
         d="m 194.48752,655.69828 10.92596,10.50763" />
      <path
         style="fill:#c0504d;fill-rule:evenodd;stroke:#c0504d;stroke-width:1;stroke-linecap:butt;stroke-miterlimit:10"
         inkscape:connector-curvature="0"
         id="path4677"
         d="m 204.26853,667.39638 4.41583,1.9552 -2.12597,-4.33624 z" />
      <path
         style="fill:#000000;fill-opacity:0;fill-rule:nonzero;stroke:none;stroke-linecap:square;stroke-miterlimit:10"
         inkscape:connector-curvature="0"
         id="path4679"
         d="m 297.82083,638.03158 -18.08276,27.93793" />
      <path
         style="fill:none;fill-rule:evenodd;stroke:#c0504d;stroke-width:1;stroke-linecap:butt;stroke-linejoin:round;stroke-miterlimit:10"
         inkscape:connector-curvature="0"
         id="path4681"
         d="m 297.82083,638.03158 -14.82257,22.90094" />
      <path
         style="fill:#c0504d;fill-rule:evenodd;stroke:#c0504d;stroke-width:1;stroke-linecap:butt;stroke-miterlimit:10"
         inkscape:connector-curvature="0"
         id="path4683"
         d="m 281.61161,660.03498 -1.07916,4.70721 3.85241,-2.91223 z" />
      <path
         style="fill:#000000;fill-opacity:0;fill-rule:nonzero;stroke:none;stroke-linecap:square;stroke-miterlimit:10"
         inkscape:connector-curvature="0"
         id="path4685"
         d="m 297.82083,638.03158 15.25055,34.33331" />
      <path
         style="fill:none;fill-rule:evenodd;stroke:#c0504d;stroke-width:1;stroke-linecap:butt;stroke-linejoin:round;stroke-miterlimit:10"
         inkscape:connector-curvature="0"
         id="path4687"
         d="m 297.82083,638.03158 12.81494,28.84991" />
      <path
         style="fill:#c0504d;fill-rule:evenodd;stroke:#c0504d;stroke-width:1;stroke-linecap:butt;stroke-miterlimit:10"
         inkscape:connector-curvature="0"
         id="path4689"
         d="m 309.12617,667.55203 3.35175,3.47687 -0.33271,-4.81787 z" />
      <path
         style="fill:#000000;fill-opacity:0;fill-rule:nonzero;stroke:none;stroke-linecap:square;stroke-miterlimit:10"
         inkscape:connector-curvature="0"
         id="path4691"
         d="m 165.48752,718.69828 -18.08276,11.93463" />
      <path
         style="fill:none;fill-rule:evenodd;stroke:#c0504d;stroke-width:1;stroke-linecap:butt;stroke-linejoin:round;stroke-miterlimit:10"
         inkscape:connector-curvature="0"
         id="path4693"
         d="m 165.48752,718.69828 -13.07513,8.62958" />
      <path
         style="fill:#c0504d;fill-rule:evenodd;stroke:#c0504d;stroke-width:1;stroke-linecap:butt;stroke-miterlimit:10"
         inkscape:connector-curvature="0"
         id="path4695"
         d="m 151.50254,725.94928 -2.87769,3.8783 4.69739,-1.12122 z" />
      <path
         style="fill:#000000;fill-opacity:0;fill-rule:nonzero;stroke:none;stroke-linecap:square;stroke-miterlimit:10"
         inkscape:connector-curvature="0"
         id="path4697"
         d="m 165.48752,718.69828 15.25055,14.66663" />
      <path
         style="fill:none;fill-rule:evenodd;stroke:#c0504d;stroke-width:1;stroke-linecap:butt;stroke-linejoin:round;stroke-miterlimit:10"
         inkscape:connector-curvature="0"
         id="path4699"
         d="m 165.48752,718.69828 10.92596,10.50763" />
      <path
         style="fill:#c0504d;fill-rule:evenodd;stroke:#c0504d;stroke-width:1;stroke-linecap:butt;stroke-miterlimit:10"
         inkscape:connector-curvature="0"
         id="path4701"
         d="m 175.26853,730.39638 4.41583,1.9552 -2.12597,-4.33624 z" />
      <path
         style="fill:#000000;fill-opacity:0;fill-rule:nonzero;stroke:none;stroke-linecap:square;stroke-miterlimit:10"
         inkscape:connector-curvature="0"
         id="path4703"
         d="m 212.48752,711.69828 -18.08276,11.93463" />
      <path
         style="fill:none;fill-rule:evenodd;stroke:#c0504d;stroke-width:1;stroke-linecap:butt;stroke-linejoin:round;stroke-miterlimit:10"
         inkscape:connector-curvature="0"
         id="path4705"
         d="m 212.48752,711.69828 -13.07513,8.62958" />
      <path
         style="fill:#c0504d;fill-rule:evenodd;stroke:#c0504d;stroke-width:1;stroke-linecap:butt;stroke-miterlimit:10"
         inkscape:connector-curvature="0"
         id="path4707"
         d="m 198.50254,718.94928 -2.87769,3.8783 4.69739,-1.12122 z" />
      <path
         style="fill:#000000;fill-opacity:0;fill-rule:nonzero;stroke:none;stroke-linecap:square;stroke-miterlimit:10"
         inkscape:connector-curvature="0"
         id="path4709"
         d="m 212.48752,711.69828 15.25055,14.66663" />
      <path
         style="fill:none;fill-rule:evenodd;stroke:#c0504d;stroke-width:1;stroke-linecap:butt;stroke-linejoin:round;stroke-miterlimit:10"
         inkscape:connector-curvature="0"
         id="path4711"
         d="m 212.48752,711.69828 10.92596,10.50763" />
      <path
         style="fill:#c0504d;fill-rule:evenodd;stroke:#c0504d;stroke-width:1;stroke-linecap:butt;stroke-miterlimit:10"
         inkscape:connector-curvature="0"
         id="path4713"
         d="m 222.26853,723.39638 4.41583,1.9552 -2.12597,-4.33624 z" />
      <path
         style="fill:#000000;fill-opacity:0;fill-rule:nonzero;stroke:none;stroke-linecap:square;stroke-miterlimit:10"
         inkscape:connector-curvature="0"
         id="path4715"
         d="M 272.48752,694.69828 254.4047,706.63291" />
      <path
         style="fill:none;fill-rule:evenodd;stroke:#c0504d;stroke-width:1;stroke-linecap:butt;stroke-linejoin:round;stroke-miterlimit:10"
         inkscape:connector-curvature="0"
         id="path4717"
         d="m 272.48752,694.69828 -13.07513,8.62958" />
      <path
         style="fill:#c0504d;fill-rule:evenodd;stroke:#c0504d;stroke-width:1;stroke-linecap:butt;stroke-miterlimit:10"
         inkscape:connector-curvature="0"
         id="path4719"
         d="m 258.50254,701.94924 -2.87769,3.87836 4.69739,-1.12122 z" />
      <path
         style="fill:#000000;fill-opacity:0;fill-rule:nonzero;stroke:none;stroke-linecap:square;stroke-miterlimit:10"
         inkscape:connector-curvature="0"
         id="path4721"
         d="m 272.48752,694.69828 15.25055,14.66663" />
      <path
         style="fill:none;fill-rule:evenodd;stroke:#c0504d;stroke-width:1;stroke-linecap:butt;stroke-linejoin:round;stroke-miterlimit:10"
         inkscape:connector-curvature="0"
         id="path4723"
         d="m 272.48752,694.69828 10.9259,10.50763" />
      <path
         style="fill:#c0504d;fill-rule:evenodd;stroke:#c0504d;stroke-width:1;stroke-linecap:butt;stroke-miterlimit:10"
         inkscape:connector-curvature="0"
         id="path4725"
         d="m 282.26853,706.39638 4.41583,1.9552 -2.12597,-4.33624 z" />
      <path
         style="fill:#000000;fill-opacity:0;fill-rule:nonzero;stroke:none;stroke-linecap:square;stroke-miterlimit:10"
         inkscape:connector-curvature="0"
         id="path4727"
         d="M 318.48752,705.69828 300.4047,717.63291" />
      <path
         style="fill:none;fill-rule:evenodd;stroke:#c0504d;stroke-width:1;stroke-linecap:butt;stroke-linejoin:round;stroke-miterlimit:10"
         inkscape:connector-curvature="0"
         id="path4729"
         d="m 318.48752,705.69828 -13.07513,8.62958" />
      <path
         style="fill:#c0504d;fill-rule:evenodd;stroke:#c0504d;stroke-width:1;stroke-linecap:butt;stroke-miterlimit:10"
         inkscape:connector-curvature="0"
         id="path4731"
         d="m 304.50254,712.94924 -2.87769,3.87836 4.69739,-1.12122 z" />
      <path
         style="fill:#000000;fill-opacity:0;fill-rule:nonzero;stroke:none;stroke-linecap:square;stroke-miterlimit:10"
         inkscape:connector-curvature="0"
         id="path4733"
         d="m 318.48752,705.69828 15.25055,14.66663" />
      <path
         style="fill:none;fill-rule:evenodd;stroke:#c0504d;stroke-width:1;stroke-linecap:butt;stroke-linejoin:round;stroke-miterlimit:10"
         inkscape:connector-curvature="0"
         id="path4735"
         d="m 318.48752,705.69828 10.9259,10.50763" />
      <path
         style="fill:#c0504d;fill-rule:evenodd;stroke:#c0504d;stroke-width:1;stroke-linecap:butt;stroke-miterlimit:10"
         inkscape:connector-curvature="0"
         id="path4737"
         d="m 328.26853,717.39638 4.41583,1.9552 -2.12597,-4.33624 z" />
    </g>
  </g>
</svg>
