<?xml version="1.0" encoding="UTF-8" standalone="no"?>
<!-- Created with Inkscape (http://www.inkscape.org/) -->

<svg
   xmlns:dc="http://purl.org/dc/elements/1.1/"
   xmlns:cc="http://creativecommons.org/ns#"
   xmlns:rdf="http://www.w3.org/1999/02/22-rdf-syntax-ns#"
   xmlns:svg="http://www.w3.org/2000/svg"
   xmlns="http://www.w3.org/2000/svg"
   xmlns:sodipodi="http://sodipodi.sourceforge.net/DTD/sodipodi-0.dtd"
   xmlns:inkscape="http://www.inkscape.org/namespaces/inkscape"
   width="210mm"
   height="297mm"
   viewBox="0 0 744.09448819 1052.3622047"
   id="svg5935"
   version="1.1"
   inkscape:version="0.91 r13725"
   sodipodi:docname="pnt_loc.svg">
  <defs
     id="defs5937" />
  <sodipodi:namedview
     id="base"
     pagecolor="#ffffff"
     bordercolor="#666666"
     borderopacity="1.0"
     inkscape:pageopacity="0.0"
     inkscape:pageshadow="2"
     inkscape:zoom="1.4"
     inkscape:cx="-582.48039"
     inkscape:cy="626.65192"
     inkscape:document-units="px"
     inkscape:current-layer="g6715"
     showgrid="false"
     inkscape:window-width="1680"
     inkscape:window-height="986"
     inkscape:window-x="1680"
     inkscape:window-y="27"
     inkscape:window-maximized="1" />
  <metadata
     id="metadata5940">
    <rdf:RDF>
      <cc:Work
         rdf:about="">
        <dc:format>image/svg+xml</dc:format>
        <dc:type
           rdf:resource="http://purl.org/dc/dcmitype/StillImage" />
        <dc:title></dc:title>
      </cc:Work>
    </rdf:RDF>
  </metadata>
  <g
     inkscape:label="Layer 1"
     inkscape:groupmode="layer"
     id="layer1">
    <g
       id="g6715">
      <path
         id="path5094"
         d="m -782.60244,373.24994 102.71182,0 0,102.71179 -102.71182,0 z"
         inkscape:connector-curvature="0"
         style="fill:#ffc000;fill-rule:nonzero" />
      <path
         id="path5098"
         d="m -679.89062,319.32626 102.71179,0 0,102.71179 -102.71179,0 z"
         inkscape:connector-curvature="0"
         style="fill:#c00000;fill-rule:nonzero" />
      <path
         id="path5102"
         d="m -679.89062,434.87698 102.71179,0 0,102.71176 -102.71179,0 z"
         inkscape:connector-curvature="0"
         style="fill:#008000;fill-rule:nonzero" />
      <path
         id="path5106"
         d="m -575.89502,378.38551 102.71179,0 0,102.71178 -102.71179,0 z"
         inkscape:connector-curvature="0"
         style="fill:#0070c0;fill-rule:nonzero" />
      <path
         id="path5110"
         d="m -424.39507,310.33896 102.71179,0 0,102.71179 -102.71179,0 z"
         inkscape:connector-curvature="0"
         style="fill:#c00000;fill-rule:nonzero" />
      <path
         id="path5114"
         d="m -439.80182,465.69049 102.71179,0 0,102.71176 -102.71179,0 z"
         inkscape:connector-curvature="0"
         style="fill:#ffc000;fill-rule:nonzero" />
      <path
         id="path5120"
         d="m -428.24422,488.8017 0,0 c 0,-3.54541 2.87408,-6.41953 6.41949,-6.41953 l 0,0 c 1.70258,0 3.33539,0.67637 4.53931,1.88025 1.20386,1.20389 1.88025,2.83673 1.88025,4.53928 l 0,0 c 0,3.54541 -2.87415,6.41949 -6.41956,6.41949 l 0,0 c -3.54541,0 -6.41949,-2.87408 -6.41949,-6.41949 z"
         inkscape:connector-curvature="0"
         style="fill-rule:nonzero;stroke:#000000;stroke-width:1;stroke-linecap:butt;stroke-linejoin:round" />
      <path
         id="path5124"
         d="m -413.42577,500.08881 5.45313,-0.9375 q 1.48437,2.32812 2.09375,5.125 1.53125,-2.26563 2.3125,-3.17188 1.04687,-1.21875 1.71875,-1.57812 0.6875,-0.375 1.45312,-0.375 0.85938,0 1.3125,0.46875 0.46875,0.46875 0.46875,1.26562 0,0.75 -0.46875,1.23438 -0.45312,0.46875 -1.14062,0.46875 -0.5,0 -1.15625,-0.17188 -0.64063,-0.1875 -0.89063,-0.1875 -0.65625,0 -1.25,0.46875 -0.8125,0.64063 -2,2.73438 1.32813,4.6875 2.125,5.71875 0.46875,0.60937 0.95313,0.60937 0.40625,0 0.70312,-0.20312 0.45313,-0.32813 1.39063,-1.64063 l 0.5625,0.32813 q -1.375,2.21875 -2.6875,3.125 -1,0.70312 -1.96875,0.70312 -1,0 -1.67188,-0.4375 -0.65625,-0.45312 -1.17187,-1.45312 -0.51563,-1.01563 -1.21875,-3.23438 -1.82813,2.32813 -2.875,3.40625 -1.03125,1.0625 -1.71875,1.39063 -0.6875,0.32812 -1.46875,0.32812 -0.8125,0 -1.28125,-0.46875 -0.48438,-0.46875 -0.48438,-1.21875 0,-0.79687 0.51563,-1.3125 0.51562,-0.51562 1.3125,-0.51562 0.42187,0 0.95312,0.25 0.78125,0.375 1.125,0.375 0.45313,0 0.8125,-0.1875 0.46875,-0.23438 1.1875,-1.01563 0.4375,-0.48437 1.60938,-2.0625 -1.5,-5.5625 -2.34375,-6.65625 -0.53125,-0.70312 -1.34375,-0.70312 -0.42188,0 -1.03125,0.125 l 0.10937,-0.59375 z"
         inkscape:connector-curvature="0"
         style="fill:#000000;fill-rule:nonzero;fill-opacity:1" />
      <path
         id="path5170"
         d="m -586.64912,289.17708 q 0,1.70312 -0.53125,3.01562 -0.53125,1.3125 -1.54687,2.21875 -1.01563,0.89063 -2.5,1.35938 -1.46875,0.46875 -3.46875,0.46875 l -1.6875,0 0,6.45312 q 0,0.15625 -0.10938,0.28125 -0.0937,0.125 -0.32812,0.20313 -0.23438,0.0781 -0.625,0.125 -0.39063,0.0469 -1,0.0469 -0.59375,0 -1,-0.0469 -0.39063,-0.0469 -0.625,-0.125 -0.23438,-0.0781 -0.32813,-0.20313 -0.0937,-0.125 -0.0937,-0.28125 l 0,-18.1875 q 0,-0.73437 0.375,-1.09375 0.39063,-0.375 1.01563,-0.375 l 4.76562,0 q 0.71875,0 1.35938,0.0625 0.65625,0.0469 1.5625,0.23438 0.90625,0.17187 1.82812,0.65625 0.9375,0.48437 1.59375,1.23437 0.65625,0.73438 1,1.73438 0.34375,0.98437 0.34375,2.21875 z m -4.29687,0.29687 q 0,-1.0625 -0.375,-1.75 -0.375,-0.6875 -0.92188,-1.01562 -0.54687,-0.32813 -1.15625,-0.40625 -0.59375,-0.0937 -1.23437,-0.0937 l -1.75,0 0,6.85937 1.84375,0 q 0.98437,0 1.64062,-0.26562 0.67188,-0.26563 1.09375,-0.73438 0.42188,-0.48437 0.64063,-1.14062 0.21875,-0.67188 0.21875,-1.45313 z m 21.34375,6.14063 q 0,1.78125 -0.46875,3.25 -0.46875,1.46875 -1.42188,2.53125 -0.95312,1.0625 -2.39062,1.64062 -1.4375,0.57813 -3.35938,0.57813 -1.85937,0 -3.23437,-0.51563 -1.375,-0.51562 -2.28125,-1.5 -0.90625,-0.98437 -1.34375,-2.42187 -0.4375,-1.4375 -0.4375,-3.28125 0,-1.78125 0.46875,-3.25 0.48437,-1.48438 1.4375,-2.53125 0.95312,-1.0625 2.375,-1.64063 1.4375,-0.57812 3.35937,-0.57812 1.875,0 3.25,0.51562 1.375,0.5 2.26563,1.48438 0.90625,0.98437 1.34375,2.42187 0.4375,1.4375 0.4375,3.29688 z m -4.04688,0.15625 q 0,-1.03125 -0.17187,-1.89063 -0.15625,-0.875 -0.54688,-1.51562 -0.39062,-0.64063 -1.04687,-1 -0.64063,-0.35938 -1.625,-0.35938 -0.875,0 -1.53125,0.32813 -0.65625,0.3125 -1.07813,0.9375 -0.42187,0.60937 -0.64062,1.48437 -0.20313,0.85938 -0.20313,1.96875 0,1.03125 0.17188,1.90625 0.17187,0.85938 0.54687,1.5 0.39063,0.64063 1.04688,1 0.65625,0.34375 1.625,0.34375 0.89062,0 1.54687,-0.3125 0.65625,-0.32812 1.07813,-0.9375 0.42187,-0.60937 0.625,-1.46875 0.20312,-0.875 0.20312,-1.98437 z m 11.09375,6.95312 q 0,0.15625 -0.0937,0.28125 -0.0937,0.10938 -0.32812,0.1875 -0.21875,0.0781 -0.59375,0.10938 -0.375,0.0469 -0.95313,0.0469 -0.57812,0 -0.95312,-0.0469 -0.375,-0.0312 -0.60938,-0.10938 -0.21875,-0.0781 -0.3125,-0.1875 -0.0937,-0.125 -0.0937,-0.28125 l 0,-13.90625 q 0,-0.15625 0.0937,-0.26562 0.0937,-0.125 0.3125,-0.20313 0.23438,-0.0937 0.60938,-0.14062 0.375,-0.0469 0.95312,-0.0469 0.57813,0 0.95313,0.0469 0.375,0.0469 0.59375,0.14062 0.23437,0.0781 0.32812,0.20313 0.0937,0.10937 0.0937,0.26562 l 0,13.90625 z m 0.29688,-18.65625 q 0,1.1875 -0.48438,1.64063 -0.48437,0.45312 -1.79687,0.45312 -1.32813,0 -1.79688,-0.4375 -0.45312,-0.4375 -0.45312,-1.57812 0,-1.1875 0.46875,-1.64063 0.48437,-0.46875 1.8125,-0.46875 1.3125,0 1.78125,0.45313 0.46875,0.4375 0.46875,1.57812 z m 16.9375,18.65625 q 0,0.15625 -0.0937,0.28125 -0.0937,0.10938 -0.3125,0.1875 -0.21875,0.0781 -0.60938,0.10938 -0.375,0.0469 -0.9375,0.0469 -0.57812,0 -0.96875,-0.0469 -0.375,-0.0312 -0.59375,-0.10938 -0.21875,-0.0781 -0.3125,-0.1875 -0.0937,-0.125 -0.0937,-0.28125 l 0,-7.95312 q 0,-1.01563 -0.15625,-1.59375 -0.14062,-0.57813 -0.42187,-0.98438 -0.28125,-0.42187 -0.73438,-0.64062 -0.4375,-0.23438 -1.03125,-0.23438 -0.75,0 -1.51562,0.54688 -0.76563,0.54687 -1.59375,1.59375 l 0,9.26562 q 0,0.15625 -0.0937,0.28125 -0.0937,0.10938 -0.32813,0.1875 -0.21875,0.0781 -0.59375,0.10938 -0.375,0.0469 -0.95312,0.0469 -0.57813,0 -0.95313,-0.0469 -0.375,-0.0312 -0.60937,-0.10938 -0.21875,-0.0781 -0.3125,-0.1875 -0.0937,-0.125 -0.0937,-0.28125 l 0,-13.9375 q 0,-0.15625 0.0781,-0.26562 0.0781,-0.125 0.28125,-0.20313 0.20313,-0.0781 0.51563,-0.10937 0.32812,-0.0469 0.8125,-0.0469 0.5,0 0.82812,0.0469 0.32813,0.0312 0.5,0.10937 0.1875,0.0781 0.26563,0.20313 0.0781,0.10937 0.0781,0.26562 l 0,1.60938 q 1.15625,-1.25 2.34375,-1.875 1.20313,-0.625 2.5,-0.625 1.42188,0 2.39063,0.46875 0.98437,0.46875 1.57812,1.28125 0.60938,0.79687 0.875,1.875 0.26563,1.07812 0.26563,2.59375 l 0,8.60937 z m 12.10937,-1.375 q 0,0.6875 -0.0937,1.0625 -0.0781,0.35938 -0.21875,0.51563 -0.14062,0.14062 -0.42187,0.26562 -0.26563,0.10938 -0.64063,0.1875 -0.35937,0.0937 -0.79687,0.14063 -0.42188,0.0469 -0.85938,0.0469 -1.17187,0 -2.03125,-0.29687 -0.85937,-0.29688 -1.42187,-0.90625 -0.5625,-0.625 -0.82813,-1.5625 -0.26562,-0.9375 -0.26562,-2.21875 l 0,-7.14063 -1.67188,0 q -0.29687,0 -0.45312,-0.35937 -0.15625,-0.375 -0.15625,-1.23438 0,-0.45312 0.0312,-0.76562 0.0469,-0.3125 0.125,-0.48438 0.0781,-0.1875 0.1875,-0.26562 0.125,-0.0781 0.28125,-0.0781 l 1.65625,0 0,-3.10937 q 0,-0.15625 0.0781,-0.28125 0.0937,-0.125 0.3125,-0.20313 0.23438,-0.0937 0.60938,-0.125 0.39062,-0.0469 0.95312,-0.0469 0.57813,0 0.95313,0.0469 0.39062,0.0312 0.60937,0.125 0.21875,0.0781 0.3125,0.20313 0.0937,0.125 0.0937,0.28125 l 0,3.10937 3.03125,0 q 0.15625,0 0.26563,0.0781 0.125,0.0781 0.20312,0.26562 0.0781,0.17188 0.10938,0.48438 0.0469,0.3125 0.0469,0.76562 0,0.85938 -0.15625,1.23438 -0.15625,0.35937 -0.45312,0.35937 l -3.04688,0 0,6.54688 q 0,1.14062 0.35938,1.71875 0.35937,0.5625 1.28125,0.5625 0.3125,0 0.5625,-0.0469 0.25,-0.0625 0.4375,-0.125 0.20312,-0.0781 0.32812,-0.125 0.14063,-0.0625 0.25,-0.0625 0.0937,0 0.17188,0.0625 0.0937,0.0469 0.14062,0.21875 0.0469,0.15625 0.0781,0.4375 0.0469,0.28125 0.0469,0.71875 z m 21.42188,0.1875 q 0,0.46875 -0.0469,0.79688 -0.0312,0.3125 -0.10937,0.53125 -0.0781,0.20312 -0.20313,0.29687 -0.10937,0.0937 -0.26562,0.0937 l -9.26563,0 q -0.51562,0 -0.875,-0.29687 -0.34375,-0.3125 -0.34375,-1 l 0,-18.35938 q 0,-0.15625 0.0937,-0.28125 0.10938,-0.125 0.34375,-0.20312 0.23438,-0.0781 0.625,-0.125 0.40625,-0.0469 1,-0.0469 0.60938,0 1,0.0469 0.39063,0.0469 0.625,0.125 0.23438,0.0781 0.32813,0.20312 0.10937,0.125 0.10937,0.28125 l 0,16.26563 6.35938,0 q 0.15625,0 0.26562,0.0937 0.125,0.0781 0.20313,0.28125 0.0781,0.1875 0.10937,0.51562 0.0469,0.3125 0.0469,0.78125 z m 16.28125,-5.92187 q 0,1.78125 -0.46875,3.25 -0.46875,1.46875 -1.42188,2.53125 -0.95312,1.0625 -2.39062,1.64062 -1.4375,0.57813 -3.35938,0.57813 -1.85937,0 -3.23437,-0.51563 -1.375,-0.51562 -2.28125,-1.5 -0.90625,-0.98437 -1.34375,-2.42187 -0.4375,-1.4375 -0.4375,-3.28125 0,-1.78125 0.46875,-3.25 0.48437,-1.48438 1.4375,-2.53125 0.95312,-1.0625 2.375,-1.64063 1.4375,-0.57812 3.35937,-0.57812 1.875,0 3.25,0.51562 1.375,0.5 2.26563,1.48438 0.90625,0.98437 1.34375,2.42187 0.4375,1.4375 0.4375,3.29688 z m -4.04688,0.15625 q 0,-1.03125 -0.17187,-1.89063 -0.15625,-0.875 -0.54688,-1.51562 -0.39062,-0.64063 -1.04687,-1 -0.64063,-0.35938 -1.625,-0.35938 -0.875,0 -1.53125,0.32813 -0.65625,0.3125 -1.07813,0.9375 -0.42187,0.60937 -0.64062,1.48437 -0.20313,0.85938 -0.20313,1.96875 0,1.03125 0.17188,1.90625 0.17187,0.85938 0.54687,1.5 0.39063,0.64063 1.04688,1 0.65625,0.34375 1.625,0.34375 0.89062,0 1.54687,-0.3125 0.65625,-0.32812 1.07813,-0.9375 0.42187,-0.60937 0.625,-1.46875 0.20312,-0.875 0.20312,-1.98437 z m 17.70313,4.73437 q 0,0.40625 -0.0312,0.6875 -0.0156,0.26563 -0.0625,0.45313 -0.0312,0.1875 -0.0937,0.3125 -0.0469,0.10937 -0.23438,0.29687 -0.1875,0.17188 -0.64062,0.4375 -0.45313,0.25 -1.03125,0.45313 -0.57813,0.20312 -1.26563,0.32812 -0.67187,0.125 -1.39062,0.125 -1.60938,0 -2.85938,-0.5 -1.23437,-0.5 -2.07812,-1.46875 -0.84375,-0.98437 -1.28125,-2.39062 -0.42188,-1.40625 -0.42188,-3.21875 0,-2.09375 0.51563,-3.60938 0.53125,-1.53125 1.46875,-2.53125 0.9375,-1 2.21875,-1.48437 1.28125,-0.48438 2.8125,-0.48438 0.625,0 1.21875,0.10938 0.60937,0.10937 1.125,0.29687 0.53125,0.1875 0.9375,0.42188 0.42187,0.23437 0.59375,0.40625 0.17187,0.17187 0.23437,0.29687 0.0781,0.10938 0.10938,0.29688 0.0469,0.1875 0.0625,0.46875 0.0312,0.26562 0.0312,0.65625 0,0.90625 -0.15625,1.28125 -0.15625,0.35937 -0.40625,0.35937 -0.26563,0 -0.5625,-0.21875 -0.29688,-0.21875 -0.70313,-0.48437 -0.40625,-0.26563 -0.96875,-0.48438 -0.5625,-0.21875 -1.34375,-0.21875 -1.53125,0 -2.34375,1.1875 -0.8125,1.17188 -0.8125,3.45313 0,1.125 0.20313,1.98437 0.20312,0.85938 0.59375,1.4375 0.40625,0.57813 1,0.875 0.60937,0.28125 1.40625,0.28125 0.8125,0 1.39062,-0.23437 0.59375,-0.25 1.03125,-0.54688 0.4375,-0.29687 0.73438,-0.53125 0.29687,-0.25 0.5,-0.25 0.14062,0 0.23437,0.0781 0.0937,0.0781 0.14063,0.29687 0.0625,0.20313 0.0937,0.53125 0.0312,0.32813 0.0312,0.84375 z m 14.71875,2.26563 q 0,0.21875 -0.15625,0.34375 -0.15625,0.125 -0.5,0.17187 -0.32813,0.0625 -0.98438,0.0625 -0.70312,0 -1.03125,-0.0625 -0.3125,-0.0469 -0.45312,-0.17187 -0.125,-0.125 -0.125,-0.34375 l 0,-1.10938 q -0.85938,0.92188 -1.96875,1.4375 -1.09375,0.51563 -2.4375,0.51563 -1.10938,0 -2.04688,-0.29688 -0.92187,-0.28125 -1.60937,-0.84375 -0.67188,-0.57812 -1.04688,-1.42187 -0.375,-0.84375 -0.375,-1.96875 0,-1.21875 0.46875,-2.10938 0.48438,-0.90625 1.42188,-1.48437 0.95312,-0.59375 2.35937,-0.875 1.40625,-0.28125 3.26563,-0.28125 l 1.35937,0 0,-0.84375 q 0,-0.65625 -0.14062,-1.14063 -0.125,-0.5 -0.4375,-0.82812 -0.29688,-0.32813 -0.8125,-0.48438 -0.5,-0.15625 -1.25,-0.15625 -0.98438,0 -1.76563,0.21875 -0.76562,0.21875 -1.35937,0.48438 -0.59375,0.26562 -1,0.48437 -0.39063,0.21875 -0.64063,0.21875 -0.17187,0 -0.3125,-0.10937 -0.125,-0.10938 -0.21875,-0.3125 -0.0781,-0.20313 -0.125,-0.5 -0.0469,-0.29688 -0.0469,-0.65625 0,-0.48438 0.0781,-0.76563 0.0781,-0.28125 0.29688,-0.5 0.21875,-0.23437 0.76562,-0.5 0.54688,-0.28125 1.28125,-0.51562 0.73438,-0.23438 1.59375,-0.375 0.875,-0.15625 1.79688,-0.15625 1.64062,0 2.79687,0.32812 1.17188,0.3125 1.92188,0.98438 0.75,0.65625 1.09375,1.70312 0.34375,1.04688 0.34375,2.48438 l 0,9.375 z m -3.85938,-5.96875 -1.5,0 q -0.95312,0 -1.625,0.14062 -0.67187,0.14063 -1.09375,0.42188 -0.42187,0.28125 -0.625,0.6875 -0.1875,0.39062 -0.1875,0.90625 0,0.875 0.54688,1.375 0.5625,0.5 1.54687,0.5 0.82813,0 1.51563,-0.42188 0.70312,-0.42187 1.42187,-1.23437 l 0,-2.375 z m 16.03125,4.54687 q 0,0.6875 -0.0937,1.0625 -0.0781,0.35938 -0.21875,0.51563 -0.14062,0.14062 -0.42187,0.26562 -0.26563,0.10938 -0.64063,0.1875 -0.35937,0.0937 -0.79687,0.14063 -0.42188,0.0469 -0.85938,0.0469 -1.17187,0 -2.03125,-0.29687 -0.85937,-0.29688 -1.42187,-0.90625 -0.5625,-0.625 -0.82813,-1.5625 -0.26562,-0.9375 -0.26562,-2.21875 l 0,-7.14063 -1.67188,0 q -0.29687,0 -0.45312,-0.35937 -0.15625,-0.375 -0.15625,-1.23438 0,-0.45312 0.0312,-0.76562 0.0469,-0.3125 0.125,-0.48438 0.0781,-0.1875 0.1875,-0.26562 0.125,-0.0781 0.28125,-0.0781 l 1.65625,0 0,-3.10937 q 0,-0.15625 0.0781,-0.28125 0.0937,-0.125 0.3125,-0.20313 0.23438,-0.0937 0.60938,-0.125 0.39062,-0.0469 0.95312,-0.0469 0.57813,0 0.95313,0.0469 0.39062,0.0312 0.60937,0.125 0.21875,0.0781 0.3125,0.20313 0.0937,0.125 0.0937,0.28125 l 0,3.10937 3.03125,0 q 0.15625,0 0.26563,0.0781 0.125,0.0781 0.20312,0.26562 0.0781,0.17188 0.10938,0.48438 0.0469,0.3125 0.0469,0.76562 0,0.85938 -0.15625,1.23438 -0.15625,0.35937 -0.45312,0.35937 l -3.04688,0 0,6.54688 q 0,1.14062 0.35938,1.71875 0.35937,0.5625 1.28125,0.5625 0.3125,0 0.5625,-0.0469 0.25,-0.0625 0.4375,-0.125 0.20312,-0.0781 0.32812,-0.125 0.14063,-0.0625 0.25,-0.0625 0.0937,0 0.17188,0.0625 0.0937,0.0469 0.14062,0.21875 0.0469,0.15625 0.0781,0.4375 0.0469,0.28125 0.0469,0.71875 z m 6.78125,1.375 q 0,0.15625 -0.0937,0.28125 -0.0937,0.10938 -0.32812,0.1875 -0.21875,0.0781 -0.59375,0.10938 -0.375,0.0469 -0.95313,0.0469 -0.57812,0 -0.95312,-0.0469 -0.375,-0.0312 -0.60938,-0.10938 -0.21875,-0.0781 -0.3125,-0.1875 -0.0937,-0.125 -0.0937,-0.28125 l 0,-13.90625 q 0,-0.15625 0.0937,-0.26562 0.0937,-0.125 0.3125,-0.20313 0.23438,-0.0937 0.60938,-0.14062 0.375,-0.0469 0.95312,-0.0469 0.57813,0 0.95313,0.0469 0.375,0.0469 0.59375,0.14062 0.23437,0.0781 0.32812,0.20313 0.0937,0.10937 0.0937,0.26562 l 0,13.90625 z m 0.29688,-18.65625 q 0,1.1875 -0.48438,1.64063 -0.48437,0.45312 -1.79687,0.45312 -1.32813,0 -1.79688,-0.4375 -0.45312,-0.4375 -0.45312,-1.57812 0,-1.1875 0.46875,-1.64063 0.48437,-0.46875 1.8125,-0.46875 1.3125,0 1.78125,0.45313 0.46875,0.4375 0.46875,1.57812 z m 17.71875,11.54688 q 0,1.78125 -0.46875,3.25 -0.46875,1.46875 -1.42188,2.53125 -0.95312,1.0625 -2.39062,1.64062 -1.4375,0.57813 -3.35938,0.57813 -1.85937,0 -3.23437,-0.51563 -1.375,-0.51562 -2.28125,-1.5 -0.90625,-0.98437 -1.34375,-2.42187 -0.4375,-1.4375 -0.4375,-3.28125 0,-1.78125 0.46875,-3.25 0.48437,-1.48438 1.4375,-2.53125 0.95312,-1.0625 2.375,-1.64063 1.4375,-0.57812 3.35937,-0.57812 1.875,0 3.25,0.51562 1.375,0.5 2.26563,1.48438 0.90625,0.98437 1.34375,2.42187 0.4375,1.4375 0.4375,3.29688 z m -4.04688,0.15625 q 0,-1.03125 -0.17187,-1.89063 -0.15625,-0.875 -0.54688,-1.51562 -0.39062,-0.64063 -1.04687,-1 -0.64063,-0.35938 -1.625,-0.35938 -0.875,0 -1.53125,0.32813 -0.65625,0.3125 -1.07813,0.9375 -0.42187,0.60937 -0.64062,1.48437 -0.20313,0.85938 -0.20313,1.96875 0,1.03125 0.17188,1.90625 0.17187,0.85938 0.54687,1.5 0.39063,0.64063 1.04688,1 0.65625,0.34375 1.625,0.34375 0.89062,0 1.54687,-0.3125 0.65625,-0.32812 1.07813,-0.9375 0.42187,-0.60937 0.625,-1.46875 0.20312,-0.875 0.20312,-1.98437 z m 20.46875,6.95312 q 0,0.15625 -0.0937,0.28125 -0.0937,0.10938 -0.3125,0.1875 -0.21875,0.0781 -0.60937,0.10938 -0.375,0.0469 -0.9375,0.0469 -0.57813,0 -0.96875,-0.0469 -0.375,-0.0312 -0.59375,-0.10938 -0.21875,-0.0781 -0.3125,-0.1875 -0.0937,-0.125 -0.0937,-0.28125 l 0,-7.95312 q 0,-1.01563 -0.15625,-1.59375 -0.14063,-0.57813 -0.42188,-0.98438 -0.28125,-0.42187 -0.73437,-0.64062 -0.4375,-0.23438 -1.03125,-0.23438 -0.75,0 -1.51563,0.54688 -0.76562,0.54687 -1.59375,1.59375 l 0,9.26562 q 0,0.15625 -0.0937,0.28125 -0.0937,0.10938 -0.32812,0.1875 -0.21875,0.0781 -0.59375,0.10938 -0.375,0.0469 -0.95313,0.0469 -0.57812,0 -0.95312,-0.0469 -0.375,-0.0312 -0.60938,-0.10938 -0.21875,-0.0781 -0.3125,-0.1875 -0.0937,-0.125 -0.0937,-0.28125 l 0,-13.9375 q 0,-0.15625 0.0781,-0.26562 0.0781,-0.125 0.28125,-0.20313 0.20312,-0.0781 0.51562,-0.10937 0.32813,-0.0469 0.8125,-0.0469 0.5,0 0.82813,0.0469 0.32812,0.0312 0.5,0.10937 0.1875,0.0781 0.26562,0.20313 0.0781,0.10937 0.0781,0.26562 l 0,1.60938 q 1.15625,-1.25 2.34375,-1.875 1.20312,-0.625 2.5,-0.625 1.42187,0 2.39062,0.46875 0.98438,0.46875 1.57813,1.28125 0.60937,0.79687 0.875,1.875 0.26562,1.07812 0.26562,2.59375 l 0,8.60937 z"
         inkscape:connector-curvature="0"
         style="fill:#000000;fill-rule:nonzero" />
    </g>
  </g>
</svg>
