<?xml version="1.0" encoding="UTF-8" standalone="no"?>
<!-- Created with Inkscape (http://www.inkscape.org/) -->

<svg
   xmlns:dc="http://purl.org/dc/elements/1.1/"
   xmlns:cc="http://creativecommons.org/ns#"
   xmlns:rdf="http://www.w3.org/1999/02/22-rdf-syntax-ns#"
   xmlns:svg="http://www.w3.org/2000/svg"
   xmlns="http://www.w3.org/2000/svg"
   xmlns:sodipodi="http://sodipodi.sourceforge.net/DTD/sodipodi-0.dtd"
   xmlns:inkscape="http://www.inkscape.org/namespaces/inkscape"
   width="100.56069mm"
   height="83.397705mm"
   viewBox="0 0 356.31741 295.50368"
   id="svg6775"
   version="1.1"
   inkscape:version="0.91 r13725"
   sodipodi:docname="surf_cross.svg">
  <defs
     id="defs6777" />
  <sodipodi:namedview
     id="base"
     pagecolor="#ffffff"
     bordercolor="#666666"
     borderopacity="1.0"
     inkscape:pageopacity="0.0"
     inkscape:pageshadow="2"
     inkscape:zoom="0.98994949"
     inkscape:cx="234.3513"
     inkscape:cy="194.13821"
     inkscape:document-units="px"
     inkscape:current-layer="layer1"
     showgrid="false"
     fit-margin-top="0"
     fit-margin-left="0"
     fit-margin-right="0"
     fit-margin-bottom="0"
     inkscape:window-width="1680"
     inkscape:window-height="986"
     inkscape:window-x="1680"
     inkscape:window-y="27"
     inkscape:window-maximized="1" />
  <metadata
     id="metadata6780">
    <rdf:RDF>
      <cc:Work
         rdf:about="">
        <dc:format>image/svg+xml</dc:format>
        <dc:type
           rdf:resource="http://purl.org/dc/dcmitype/StillImage" />
        <dc:title></dc:title>
      </cc:Work>
    </rdf:RDF>
  </metadata>
  <g
     inkscape:label="Layer 1"
     inkscape:groupmode="layer"
     id="layer1"
     transform="translate(378.0453,-283.02376)">
    <g
       id="g7473">
      <path
         id="path5130"
         d="M -274.08681,546.73411 -147.90732,335.97273 -21.727876,546.73411 Z"
         style="fill:#c00000;fill-rule:nonzero"
         inkscape:connector-curvature="0" />
      <path
         id="path5134"
         d="m -351.73602,333.19966 202.44191,0 0,145.59174 -202.44191,0 z"
         style="fill:#0070c0;fill-rule:nonzero"
         inkscape:connector-curvature="0" />
      <path
         id="path5140"
         d="m -377.5403,498.89687 0,0 c 0,-43.69988 38.24728,-79.12564 85.42773,-79.12564 l 0,0 c 47.18039,0 85.42767,35.42576 85.42767,79.12564 l 0,0 c 0,43.69981 -38.24728,79.12557 -85.42767,79.12557 l 0,0 c -47.18045,0 -85.42773,-35.42576 -85.42773,-79.12557 z"
         style="fill:#000000;fill-opacity:1;fill-rule:nonzero;stroke:#000000;stroke-width:1.00999999;stroke-linecap:butt;stroke-linejoin:round"
         inkscape:connector-curvature="0" />
      <path
         id="path5138"
         d="m -376.69448,498.89686 0,0 c 0,-43.26721 37.86859,-78.34222 84.58191,-78.34222 l 0,0 c 46.71326,0 84.58186,35.07501 84.58186,78.34222 l 0,0 c 0,43.26715 -37.86859,78.34216 -84.58186,78.34216 l 0,0 c -46.71331,0 -84.5819,-35.07501 -84.5819,-78.34216 z"
         style="fill:#ffc000;fill-rule:nonzero"
         inkscape:connector-curvature="0" />
      <path
         id="path5142"
         d="m -224.11782,464.88966 0,0 c 0,-3.82898 3.10394,-6.93292 6.93292,-6.93292 l 0,0 c 1.83875,0 3.60218,0.73041 4.90235,2.03058 1.30023,1.30023 2.03064,3.06359 2.03064,4.90234 l 0,0 c 0,3.82898 -3.10401,6.93298 -6.93299,6.93298 l 0,0 c -3.82898,0 -6.93292,-3.104 -6.93292,-6.93298 z"
         style="fill:#92d050;fill-rule:nonzero"
         inkscape:connector-curvature="0" />
      <path
         id="path5144"
         d="m -224.11782,464.88966 0,0 c 0,-3.82898 3.10394,-6.93292 6.93292,-6.93292 l 0,0 c 1.83875,0 3.60218,0.73041 4.90235,2.03058 1.30023,1.30023 2.03064,3.06359 2.03064,4.90234 l 0,0 c 0,3.82898 -3.10401,6.93298 -6.93299,6.93298 l 0,0 c -3.82898,0 -6.93292,-3.104 -6.93292,-6.93298 z"
         style="fill-rule:nonzero;stroke:#000000;stroke-width:1;stroke-linecap:butt;stroke-linejoin:round"
         inkscape:connector-curvature="0" />
      <path
         id="path5148"
         d="m -237.85775,479.96187 5.45313,-0.9375 q 1.48437,2.32813 2.09375,5.125 1.53125,-2.26562 2.3125,-3.17187 1.04687,-1.21875 1.71875,-1.57813 0.6875,-0.375 1.45312,-0.375 0.85938,0 1.3125,0.46875 0.46875,0.46875 0.46875,1.26563 0,0.75 -0.46875,1.23437 -0.45312,0.46875 -1.14062,0.46875 -0.5,0 -1.15625,-0.17187 -0.64063,-0.1875 -0.89063,-0.1875 -0.65625,0 -1.25,0.46875 -0.8125,0.64062 -2,2.73437 1.32813,4.6875 2.125,5.71875 0.46875,0.60938 0.95313,0.60938 0.40625,0 0.70312,-0.20313 0.45313,-0.32812 1.39063,-1.64062 l 0.5625,0.32812 q -1.375,2.21875 -2.6875,3.125 -1,0.70313 -1.96875,0.70313 -1,0 -1.67188,-0.4375 -0.65625,-0.45313 -1.17187,-1.45313 -0.51563,-1.01562 -1.21875,-3.23437 -1.82813,2.32812 -2.875,3.40625 -1.03125,1.0625 -1.71875,1.39062 -0.6875,0.32813 -1.46875,0.32813 -0.8125,0 -1.28125,-0.46875 -0.48438,-0.46875 -0.48438,-1.21875 0,-0.79688 0.51563,-1.3125 0.51562,-0.51563 1.3125,-0.51563 0.42187,0 0.95312,0.25 0.78125,0.375 1.125,0.375 0.45313,0 0.8125,-0.1875 0.46875,-0.23437 1.1875,-1.01562 0.4375,-0.48438 1.60938,-2.0625 -1.5,-5.5625 -2.34375,-6.65625 -0.53125,-0.70313 -1.34375,-0.70313 -0.42188,0 -1.03125,0.125 l 0.10937,-0.59375 z"
         style="fill:#000000;fill-opacity:1;fill-rule:nonzero;stroke:none;stroke-opacity:1"
         inkscape:connector-curvature="0" />
      <path
         id="path5150"
         d="m -246.54758,343.95616 47.51985,0 0,46.20425 -47.51985,0 z"
         style="fill:#000000;fill-opacity:0;fill-rule:nonzero"
         inkscape:connector-curvature="0" />
      <path
         id="path5152"
         d="m -232.54758,379.16054 0.6875,-17.71875 q 0.0469,-1.54688 0.0469,-1.625 0,-0.85938 -0.42187,-1.26563 -0.40625,-0.40625 -1.51563,-0.48437 l 0.1875,-0.57813 8.90625,0 -0.17187,0.57813 q -1.14063,0 -1.73438,0.6875 -0.57812,0.6875 -0.67187,2.84375 l -0.5,11.04687 8.26562,-9.59375 q 1.60938,-1.85937 1.98438,-2.57812 0.375,-0.71875 0.375,-1.25 0,-0.39063 -0.34375,-0.6875 -0.34375,-0.3125 -1.3125,-0.46875 l 0.21875,-0.57813 5.84375,0 0,0.57813 q -0.75,0.1875 -1.21875,0.54687 -0.6875,0.51563 -2.125,2.1875 l -15.8125,18.35938 -0.6875,0 z"
         style="fill:#000000;fill-rule:nonzero"
         inkscape:connector-curvature="0" />
      <path
         id="path5160"
         d="m -313.10366,390.16041 39.01685,0 0,46.20428 -39.01685,0 z"
         style="fill:#000000;fill-opacity:0;fill-rule:nonzero"
         inkscape:connector-curvature="0" />
      <path
         id="path5162"
         d="m -299.15052,403.69291 8.375,0 q 2.79688,0 4,0.29687 1.57813,0.375 2.4375,1.46875 0.875,1.07813 0.875,2.4531 0,1.125 -0.6875,2.29687 -0.6875,1.17188 -2.0625,1.9375 -1.35937,0.75 -4.1875,1.39063 2.9375,0.82812 4.07813,2.125 1.14062,1.29687 1.14062,3.01562 0,1.60938 -1.125,3.1875 -1.125,1.5625 -2.98437,2.29688 -1.85938,0.71875 -6.8125,0.71875 l -8.8125,0 0.20312,-0.57813 q 1.28125,0 1.82813,-0.23437 0.5625,-0.23438 0.89062,-0.71875 0.34375,-0.5 0.79688,-2.0625 l 3.78125,-13.03125 q 0.57812,-1.98435 0.57812,-2.65622 0,-0.54688 -0.46875,-0.90625 -0.45312,-0.35938 -2,-0.42188 l 0.15625,-0.57812 z m 4.79688,9.35934 q 2.125,-0.0312 3.34375,-0.67187 1.23437,-0.64063 1.96875,-2.09375 0.75,-1.46875 0.75,-2.7656 0,-1.21875 -0.76563,-1.98437 -0.76562,-0.76563 -2.04687,-0.73438 l -0.85938,0.0312 -2.39062,8.21872 z m -0.375,1.17188 -2.70313,9.42187 q 0.78125,0.0312 1.17188,0.0312 3.48437,0 4.84375,-1.9375 1.35937,-1.95312 1.35937,-4.17187 0,-1.0625 -0.53125,-1.875 -0.51562,-0.82813 -1.34375,-1.14063 -0.82812,-0.32812 -2.79687,-0.32812 z"
         style="fill:#000000;fill-rule:nonzero"
         inkscape:connector-curvature="0" />
      <path
         id="path5174"
         d="m -288.25749,298.83626 q 0,1.59375 -0.59375,2.79688 -0.59375,1.20312 -1.60938,2.01562 -1.01562,0.79688 -2.375,1.20313 -1.35937,0.40625 -2.90625,0.40625 -1.04687,0 -1.95312,-0.17188 -0.89063,-0.17187 -1.57813,-0.40625 -0.6875,-0.25 -1.15625,-0.51562 -0.45312,-0.26563 -0.65625,-0.46875 -0.20312,-0.20313 -0.29687,-0.57813 -0.0781,-0.39062 -0.0781,-1.10937 0,-0.48438 0.0312,-0.8125 0.0312,-0.32813 0.0937,-0.53125 0.0781,-0.20313 0.1875,-0.28125 0.125,-0.0937 0.28125,-0.0937 0.21875,0 0.60938,0.26562 0.40625,0.25 1.03125,0.5625 0.625,0.3125 1.48437,0.57813 0.875,0.25 2.01563,0.25 0.75,0 1.34375,-0.17188 0.59375,-0.1875 1,-0.51562 0.42187,-0.32813 0.64062,-0.8125 0.21875,-0.48438 0.21875,-1.07813 0,-0.6875 -0.375,-1.17187 -0.375,-0.5 -0.98437,-0.875 -0.59375,-0.39063 -1.35938,-0.71875 -0.76562,-0.34375 -1.57812,-0.71875 -0.8125,-0.375 -1.57813,-0.84375 -0.76562,-0.48438 -1.375,-1.14063 -0.59375,-0.67187 -0.96875,-1.57812 -0.375,-0.90625 -0.375,-2.17188 0,-1.45312 0.53125,-2.54687 0.54688,-1.10938 1.45313,-1.82813 0.92187,-0.73437 2.15625,-1.09375 1.25,-0.35937 2.64062,-0.35937 0.71875,0 1.4375,0.10937 0.71875,0.10938 1.34375,0.29688 0.625,0.1875 1.10938,0.42187 0.48437,0.23438 0.64062,0.39063 0.15625,0.15625 0.20313,0.26562 0.0625,0.10938 0.0937,0.29688 0.0469,0.17187 0.0625,0.45312 0.0156,0.26563 0.0156,0.67188 0,0.45312 -0.0312,0.76562 -0.0156,0.3125 -0.0781,0.51563 -0.0469,0.20312 -0.15625,0.29687 -0.0937,0.0937 -0.26563,0.0937 -0.17187,0 -0.54687,-0.21875 -0.375,-0.21875 -0.92188,-0.46875 -0.54687,-0.26562 -1.26562,-0.46875 -0.71875,-0.21875 -1.57813,-0.21875 -0.67187,0 -1.17187,0.17188 -0.5,0.15625 -0.84375,0.45312 -0.32813,0.28125 -0.5,0.6875 -0.15625,0.40625 -0.15625,0.85938 0,0.67187 0.35937,1.17187 0.375,0.48438 0.98438,0.875 0.625,0.375 1.40625,0.71875 0.78125,0.32813 1.59375,0.70313 0.8125,0.375 1.59375,0.85937 0.78125,0.46875 1.39062,1.14063 0.60938,0.65625 0.98438,1.5625 0.375,0.89062 0.375,2.10937 z m 16.125,5.53125 q 0,0.15625 -0.0781,0.28125 -0.0781,0.10938 -0.28125,0.1875 -0.1875,0.0781 -0.51562,0.10938 -0.3125,0.0469 -0.79688,0.0469 -0.51562,0 -0.84375,-0.0469 -0.3125,-0.0312 -0.5,-0.10938 -0.1875,-0.0781 -0.26562,-0.1875 -0.0781,-0.125 -0.0781,-0.28125 l 0,-1.60937 q -1.15625,1.25 -2.35937,1.875 -1.1875,0.625 -2.46875,0.625 -1.4375,0 -2.42188,-0.46875 -0.96875,-0.46875 -1.57812,-1.28125 -0.59375,-0.8125 -0.85938,-1.875 -0.25,-1.07813 -0.25,-2.67188 l 0,-8.53125 q 0,-0.15625 0.0781,-0.26562 0.0937,-0.125 0.3125,-0.20313 0.23437,-0.0781 0.60937,-0.10937 0.39063,-0.0469 0.95313,-0.0469 0.57812,0 0.95312,0.0469 0.375,0.0312 0.59375,0.10937 0.23438,0.0781 0.32813,0.20313 0.0937,0.10937 0.0937,0.26562 l 0,7.875 q 0,1.09375 0.14062,1.67188 0.14063,0.57812 0.42188,1 0.29687,0.40625 0.73437,0.64062 0.45313,0.21875 1.04688,0.21875 0.75,0 1.5,-0.54687 0.76562,-0.54688 1.625,-1.59375 l 0,-9.26563 q 0,-0.15625 0.0781,-0.26562 0.0937,-0.125 0.3125,-0.20313 0.23438,-0.0781 0.60938,-0.10937 0.375,-0.0469 0.95312,-0.0469 0.57813,0 0.95313,0.0469 0.375,0.0312 0.59375,0.10937 0.21875,0.0781 0.3125,0.20313 0.0937,0.10937 0.0937,0.26562 l 0,13.9375 z m 12.90625,-12.64062 q 0,0.5625 -0.0312,0.92187 -0.0312,0.35938 -0.0937,0.5625 -0.0625,0.20313 -0.17188,0.28125 -0.0937,0.0781 -0.25,0.0781 -0.125,0 -0.28125,-0.0469 -0.15625,-0.0625 -0.35937,-0.125 -0.1875,-0.0625 -0.42188,-0.10937 -0.23437,-0.0625 -0.51562,-0.0625 -0.32813,0 -0.65625,0.14062 -0.32813,0.125 -0.6875,0.40625 -0.34375,0.28125 -0.73438,0.75 -0.375,0.46875 -0.8125,1.15625 l 0,8.6875 q 0,0.15625 -0.0937,0.28125 -0.0937,0.10938 -0.32812,0.1875 -0.21875,0.0781 -0.59375,0.10938 -0.375,0.0469 -0.95313,0.0469 -0.57812,0 -0.95312,-0.0469 -0.375,-0.0312 -0.60938,-0.10938 -0.21875,-0.0781 -0.3125,-0.1875 -0.0937,-0.125 -0.0937,-0.28125 l 0,-13.9375 q 0,-0.15625 0.0781,-0.26562 0.0781,-0.125 0.28125,-0.20313 0.20312,-0.0781 0.51562,-0.10937 0.32813,-0.0469 0.8125,-0.0469 0.5,0 0.82813,0.0469 0.32812,0.0312 0.5,0.10937 0.1875,0.0781 0.26562,0.20313 0.0781,0.10937 0.0781,0.26562 l 0,1.73438 q 0.54687,-0.78125 1.03125,-1.28125 0.48437,-0.51563 0.92187,-0.8125 0.4375,-0.29688 0.875,-0.40625 0.4375,-0.125 0.875,-0.125 0.20313,0 0.4375,0.0312 0.23438,0.0156 0.48438,0.0781 0.25,0.0469 0.4375,0.125 0.1875,0.0625 0.26562,0.14063 0.0937,0.0781 0.125,0.17187 0.0469,0.0937 0.0781,0.26563 0.0312,0.15625 0.0469,0.48437 0.0156,0.32813 0.0156,0.89063 z m 10.82812,-6.60938 q 0,0.45313 -0.0312,0.73438 -0.0312,0.26562 -0.0937,0.42187 -0.0625,0.14063 -0.14062,0.20313 -0.0781,0.0469 -0.17188,0.0469 -0.10937,0 -0.25,-0.0469 -0.125,-0.0625 -0.32812,-0.125 -0.1875,-0.0625 -0.45313,-0.10938 -0.26562,-0.0625 -0.625,-0.0625 -0.42187,0 -0.73437,0.14063 -0.29688,0.125 -0.5,0.42187 -0.20313,0.28125 -0.29688,0.75 -0.0937,0.45313 -0.0937,1.125 l 0,1.28125 2.54688,0 q 0.14062,0 0.25,0.0781 0.125,0.0781 0.20312,0.26562 0.0781,0.17188 0.10938,0.48438 0.0469,0.3125 0.0469,0.76562 0,0.85938 -0.15625,1.23438 -0.15625,0.35937 -0.45312,0.35937 l -2.54688,0 0,11.28125 q 0,0.15625 -0.0937,0.28125 -0.0937,0.10938 -0.3125,0.1875 -0.21875,0.0781 -0.60937,0.10938 -0.39063,0.0469 -0.95313,0.0469 -0.5625,0 -0.95312,-0.0469 -0.375,-0.0312 -0.60938,-0.10938 -0.21875,-0.0781 -0.3125,-0.1875 -0.0781,-0.125 -0.0781,-0.28125 l 0,-11.28125 -1.75,0 q -0.29688,0 -0.45313,-0.35937 -0.14062,-0.375 -0.14062,-1.23438 0,-0.45312 0.0312,-0.76562 0.0469,-0.3125 0.10937,-0.48438 0.0781,-0.1875 0.1875,-0.26562 0.125,-0.0781 0.28125,-0.0781 l 1.73438,0 0,-1.17187 q 0,-1.42188 0.28125,-2.48438 0.28125,-1.07812 0.875,-1.78125 0.60937,-0.71875 1.53125,-1.07812 0.9375,-0.35938 2.20312,-0.35938 0.60938,0 1.15625,0.10938 0.54688,0.0937 0.85938,0.21875 0.3125,0.10937 0.42187,0.21875 0.10938,0.0937 0.17188,0.29687 0.0781,0.1875 0.10937,0.5 0.0312,0.29688 0.0312,0.75 z m 13.59375,19.29688 q 0,0.21875 -0.15625,0.34375 -0.15625,0.125 -0.5,0.17187 -0.32812,0.0625 -0.98437,0.0625 -0.70313,0 -1.03125,-0.0625 -0.3125,-0.0469 -0.45313,-0.17187 -0.125,-0.125 -0.125,-0.34375 l 0,-1.10938 q -0.85937,0.92188 -1.96875,1.4375 -1.09375,0.51563 -2.4375,0.51563 -1.10937,0 -2.04687,-0.29688 -0.92188,-0.28125 -1.60938,-0.84375 -0.67187,-0.57812 -1.04687,-1.42187 -0.375,-0.84375 -0.375,-1.96875 0,-1.21875 0.46875,-2.10938 0.48437,-0.90625 1.42187,-1.48437 0.95313,-0.59375 2.35938,-0.875 1.40625,-0.28125 3.26562,-0.28125 l 1.35938,0 0,-0.84375 q 0,-0.65625 -0.14063,-1.14063 -0.125,-0.5 -0.4375,-0.82812 -0.29687,-0.32813 -0.8125,-0.48438 -0.5,-0.15625 -1.25,-0.15625 -0.98437,0 -1.76562,0.21875 -0.76563,0.21875 -1.35938,0.48438 -0.59375,0.26562 -1,0.48437 -0.39062,0.21875 -0.64062,0.21875 -0.17188,0 -0.3125,-0.10937 -0.125,-0.10938 -0.21875,-0.3125 -0.0781,-0.20313 -0.125,-0.5 -0.0469,-0.29688 -0.0469,-0.65625 0,-0.48438 0.0781,-0.76563 0.0781,-0.28125 0.29687,-0.5 0.21875,-0.23437 0.76563,-0.5 0.54687,-0.28125 1.28125,-0.51562 0.73437,-0.23438 1.59375,-0.375 0.875,-0.15625 1.79687,-0.15625 1.64063,0 2.79688,0.32812 1.17187,0.3125 1.92187,0.98438 0.75,0.65625 1.09375,1.70312 0.34375,1.04688 0.34375,2.48438 l 0,9.375 z m -3.85937,-5.96875 -1.5,0 q -0.95313,0 -1.625,0.14062 -0.67188,0.14063 -1.09375,0.42188 -0.42188,0.28125 -0.625,0.6875 -0.1875,0.39062 -0.1875,0.90625 0,0.875 0.54687,1.375 0.5625,0.5 1.54688,0.5 0.82812,0 1.51562,-0.42188 0.70313,-0.42187 1.42188,-1.23437 l 0,-2.375 z m 18.32812,3.70312 q 0,0.40625 -0.0312,0.6875 -0.0156,0.26563 -0.0625,0.45313 -0.0312,0.1875 -0.0937,0.3125 -0.0469,0.10937 -0.23437,0.29687 -0.1875,0.17188 -0.64063,0.4375 -0.45312,0.25 -1.03125,0.45313 -0.57812,0.20312 -1.26562,0.32812 -0.67188,0.125 -1.39063,0.125 -1.60937,0 -2.85937,-0.5 -1.23438,-0.5 -2.07813,-1.46875 -0.84375,-0.98437 -1.28125,-2.39062 -0.42187,-1.40625 -0.42187,-3.21875 0,-2.09375 0.51562,-3.60938 0.53125,-1.53125 1.46875,-2.53125 0.9375,-1 2.21875,-1.48437 1.28125,-0.48438 2.8125,-0.48438 0.625,0 1.21875,0.10938 0.60938,0.10937 1.125,0.29687 0.53125,0.1875 0.9375,0.42188 0.42188,0.23437 0.59375,0.40625 0.17188,0.17187 0.23438,0.29687 0.0781,0.10938 0.10937,0.29688 0.0469,0.1875 0.0625,0.46875 0.0312,0.26562 0.0312,0.65625 0,0.90625 -0.15625,1.28125 -0.15625,0.35937 -0.40625,0.35937 -0.26562,0 -0.5625,-0.21875 -0.29687,-0.21875 -0.70312,-0.48437 -0.40625,-0.26563 -0.96875,-0.48438 -0.5625,-0.21875 -1.34375,-0.21875 -1.53125,0 -2.34375,1.1875 -0.8125,1.17188 -0.8125,3.45313 0,1.125 0.20312,1.98437 0.20313,0.85938 0.59375,1.4375 0.40625,0.57813 1,0.875 0.60938,0.28125 1.40625,0.28125 0.8125,0 1.39063,-0.23437 0.59375,-0.25 1.03125,-0.54688 0.4375,-0.29687 0.73437,-0.53125 0.29688,-0.25 0.5,-0.25 0.14063,0 0.23438,0.0781 0.0937,0.0781 0.14062,0.29687 0.0625,0.20313 0.0937,0.53125 0.0312,0.32813 0.0312,0.84375 z m 15.71875,-5.15625 q 0,0.71875 -0.32812,1.0625 -0.3125,0.34375 -0.875,0.34375 l -8.48438,0 q 0,0.89063 0.20313,1.625 0.21875,0.71875 0.67187,1.23438 0.46875,0.5 1.1875,0.76562 0.73438,0.26563 1.75,0.26563 1.03125,0 1.8125,-0.14063 0.78125,-0.15625 1.34375,-0.32812 0.57813,-0.1875 0.95313,-0.32813 0.375,-0.15625 0.60937,-0.15625 0.14063,0 0.23438,0.0625 0.0937,0.0469 0.15625,0.1875 0.0625,0.14063 0.0781,0.40625 0.0312,0.25 0.0312,0.64063 0,0.34375 -0.0156,0.59375 -0.0156,0.23437 -0.0469,0.40625 -0.0312,0.17187 -0.0937,0.29687 -0.0625,0.10938 -0.17187,0.21875 -0.0937,0.10938 -0.54688,0.29688 -0.45312,0.1875 -1.15625,0.375 -0.70312,0.17187 -1.60937,0.29687 -0.90625,0.14063 -1.9375,0.14063 -1.85938,0 -3.26563,-0.46875 -1.39062,-0.46875 -2.32812,-1.42188 -0.9375,-0.95312 -1.40625,-2.40625 -0.45313,-1.45312 -0.45313,-3.40625 0,-1.85937 0.48438,-3.34375 0.48437,-1.5 1.40625,-2.53125 0.92187,-1.04687 2.23437,-1.59375 1.32813,-0.54687 2.98438,-0.54687 1.75,0 2.98437,0.51562 1.25,0.51563 2.04688,1.4375 0.79687,0.90625 1.17187,2.15625 0.375,1.25 0.375,2.71875 l 0,0.625 z m -3.8125,-1.125 q 0.0469,-1.65625 -0.67187,-2.59375 -0.70313,-0.95312 -2.1875,-0.95312 -0.75,0 -1.3125,0.28125 -0.54688,0.28125 -0.92188,0.76562 -0.35937,0.46875 -0.5625,1.125 -0.1875,0.64063 -0.21875,1.375 l 5.875,0 z m 28.5,5.96875 q 0,0.39063 -0.0312,0.67188 -0.0156,0.26562 -0.0625,0.46875 -0.0469,0.1875 -0.125,0.32812 -0.0781,0.14063 -0.25,0.32813 -0.17188,0.17187 -0.67188,0.45312 -0.48437,0.28125 -1.20312,0.54688 -0.70313,0.25 -1.625,0.42187 -0.90625,0.17188 -1.96875,0.17188 -2.07813,0 -3.75,-0.64063 -1.67188,-0.64062 -2.84375,-1.90625 -1.17188,-1.28125 -1.79688,-3.1875 -0.625,-1.90625 -0.625,-4.4375 0,-2.57812 0.6875,-4.57812 0.6875,-2 1.92188,-3.35938 1.23437,-1.35937 2.95312,-2.0625 1.73438,-0.70312 3.8125,-0.70312 0.84375,0 1.625,0.14062 0.78125,0.14063 1.4375,0.375 0.67188,0.21875 1.20313,0.51563 0.53125,0.29687 0.73437,0.51562 0.21875,0.20313 0.29688,0.34375 0.0781,0.14063 0.125,0.35938 0.0469,0.21875 0.0625,0.51562 0.0312,0.29688 0.0312,0.73438 0,0.46875 -0.0312,0.79687 -0.0312,0.32813 -0.10938,0.53125 -0.0781,0.20313 -0.1875,0.29688 -0.10937,0.0937 -0.25,0.0937 -0.23437,0 -0.59375,-0.26563 -0.35937,-0.28125 -0.9375,-0.60937 -0.5625,-0.34375 -1.35937,-0.60938 -0.78125,-0.28125 -1.875,-0.28125 -1.20313,0 -2.15625,0.5 -0.9375,0.48438 -1.60938,1.40625 -0.65625,0.90625 -1,2.20313 -0.34375,1.29687 -0.34375,2.92187 0,1.78125 0.35938,3.09375 0.375,1.29688 1.04687,2.14063 0.6875,0.84375 1.64063,1.26562 0.96875,0.40625 2.17187,0.40625 1.09375,0 1.89063,-0.25 0.79687,-0.26562 1.35937,-0.57812 0.57813,-0.3125 0.9375,-0.5625 0.375,-0.25 0.57813,-0.25 0.15625,0 0.25,0.0625 0.0937,0.0625 0.15625,0.25 0.0625,0.1875 0.0937,0.53125 0.0312,0.32812 0.0312,0.89062 z m 11.67187,-10.10937 q 0,0.5625 -0.0312,0.92187 -0.0312,0.35938 -0.0937,0.5625 -0.0625,0.20313 -0.17188,0.28125 -0.0937,0.0781 -0.25,0.0781 -0.125,0 -0.28125,-0.0469 -0.15625,-0.0625 -0.35937,-0.125 -0.1875,-0.0625 -0.42188,-0.10937 -0.23437,-0.0625 -0.51562,-0.0625 -0.32813,0 -0.65625,0.14062 -0.32813,0.125 -0.6875,0.40625 -0.34375,0.28125 -0.73438,0.75 -0.375,0.46875 -0.8125,1.15625 l 0,8.6875 q 0,0.15625 -0.0937,0.28125 -0.0937,0.10938 -0.32812,0.1875 -0.21875,0.0781 -0.59375,0.10938 -0.375,0.0469 -0.95313,0.0469 -0.57812,0 -0.95312,-0.0469 -0.375,-0.0312 -0.60938,-0.10938 -0.21875,-0.0781 -0.3125,-0.1875 -0.0937,-0.125 -0.0937,-0.28125 l 0,-13.9375 q 0,-0.15625 0.0781,-0.26562 0.0781,-0.125 0.28125,-0.20313 0.20312,-0.0781 0.51562,-0.10937 0.32813,-0.0469 0.8125,-0.0469 0.5,0 0.82813,0.0469 0.32812,0.0312 0.5,0.10937 0.1875,0.0781 0.26562,0.20313 0.0781,0.10937 0.0781,0.26562 l 0,1.73438 q 0.54687,-0.78125 1.03125,-1.28125 0.48437,-0.51563 0.92187,-0.8125 0.4375,-0.29688 0.875,-0.40625 0.4375,-0.125 0.875,-0.125 0.20313,0 0.4375,0.0312 0.23438,0.0156 0.48438,0.0781 0.25,0.0469 0.4375,0.125 0.1875,0.0625 0.26562,0.14063 0.0937,0.0781 0.125,0.17187 0.0469,0.0937 0.0781,0.26563 0.0312,0.15625 0.0469,0.48437 0.0156,0.32813 0.0156,0.89063 z m 16.51563,5.53125 q 0,1.78125 -0.46875,3.25 -0.46875,1.46875 -1.42188,2.53125 -0.95312,1.0625 -2.39062,1.64062 -1.4375,0.57813 -3.35938,0.57813 -1.85937,0 -3.23437,-0.51563 -1.375,-0.51562 -2.28125,-1.5 -0.90625,-0.98437 -1.34375,-2.42187 -0.4375,-1.4375 -0.4375,-3.28125 0,-1.78125 0.46875,-3.25 0.48437,-1.48438 1.4375,-2.53125 0.95312,-1.0625 2.375,-1.64063 1.4375,-0.57812 3.35937,-0.57812 1.875,0 3.25,0.51562 1.375,0.5 2.26563,1.48438 0.90625,0.98437 1.34375,2.42187 0.4375,1.4375 0.4375,3.29688 z m -4.04688,0.15625 q 0,-1.03125 -0.17187,-1.89063 -0.15625,-0.875 -0.54688,-1.51562 -0.39062,-0.64063 -1.04687,-1 -0.64063,-0.35938 -1.625,-0.35938 -0.875,0 -1.53125,0.32813 -0.65625,0.3125 -1.07813,0.9375 -0.42187,0.60937 -0.64062,1.48437 -0.20313,0.85938 -0.20313,1.96875 0,1.03125 0.17188,1.90625 0.17187,0.85938 0.54687,1.5 0.39063,0.64063 1.04688,1 0.65625,0.34375 1.625,0.34375 0.89062,0 1.54687,-0.3125 0.65625,-0.32812 1.07813,-0.9375 0.42187,-0.60937 0.625,-1.46875 0.20312,-0.875 0.20312,-1.98437 z m 16.96875,3.01562 q 0,1.1875 -0.45312,2.09375 -0.4375,0.90625 -1.25,1.51563 -0.8125,0.60937 -1.92188,0.90625 -1.10937,0.3125 -2.40625,0.3125 -0.78125,0 -1.5,-0.125 -0.70312,-0.10938 -1.26562,-0.28125 -0.5625,-0.1875 -0.9375,-0.375 -0.375,-0.1875 -0.54688,-0.34375 -0.17187,-0.17188 -0.26562,-0.51563 -0.0937,-0.35937 -0.0937,-1.04687 0,-0.45313 0.0312,-0.71875 0.0312,-0.28125 0.0937,-0.4375 0.0625,-0.17188 0.15625,-0.21875 0.0937,-0.0625 0.23437,-0.0625 0.17188,0 0.5,0.20312 0.34375,0.1875 0.84375,0.42188 0.5,0.23437 1.15625,0.4375 0.67188,0.20312 1.51563,0.20312 0.53125,0 0.9375,-0.10937 0.42187,-0.10938 0.71875,-0.3125 0.3125,-0.20313 0.46875,-0.51563 0.15625,-0.3125 0.15625,-0.71875 0,-0.46875 -0.29688,-0.79687 -0.28125,-0.34375 -0.76562,-0.59375 -0.46875,-0.25 -1.07813,-0.46875 -0.59375,-0.21875 -1.23437,-0.48438 -0.625,-0.26562 -1.23438,-0.60937 -0.59375,-0.34375 -1.07812,-0.84375 -0.46875,-0.5 -0.76563,-1.20313 -0.28125,-0.70312 -0.28125,-1.6875 0,-1 0.39063,-1.82812 0.39062,-0.84375 1.125,-1.4375 0.73437,-0.59375 1.78125,-0.92188 1.0625,-0.32812 2.375,-0.32812 0.65625,0 1.26562,0.0937 0.625,0.0937 1.125,0.23437 0.5,0.14063 0.84375,0.3125 0.34375,0.15625 0.48438,0.28125 0.15625,0.10938 0.21875,0.23438 0.0625,0.10937 0.0937,0.28125 0.0312,0.15625 0.0469,0.40625 0.0312,0.23437 0.0312,0.59375 0,0.42187 -0.0312,0.6875 -0.0156,0.26562 -0.0781,0.42187 -0.0469,0.15625 -0.14063,0.21875 -0.0937,0.0469 -0.21875,0.0469 -0.14062,0 -0.4375,-0.15625 -0.29687,-0.17188 -0.75,-0.35938 -0.4375,-0.1875 -1.03125,-0.34375 -0.57812,-0.17187 -1.32812,-0.17187 -0.53125,0 -0.92188,0.10937 -0.39062,0.10938 -0.64062,0.3125 -0.25,0.20313 -0.375,0.48438 -0.125,0.26562 -0.125,0.57812 0,0.48438 0.29687,0.8125 0.29688,0.32813 0.78125,0.57813 0.48438,0.25 1.09375,0.46875 0.625,0.21875 1.25,0.48437 0.64063,0.25 1.25,0.59375 0.625,0.34375 1.10938,0.84375 0.48437,0.5 0.78125,1.20313 0.29687,0.6875 0.29687,1.64062 z m 12.76563,0 q 0,1.1875 -0.45313,2.09375 -0.4375,0.90625 -1.25,1.51563 -0.8125,0.60937 -1.92187,0.90625 -1.10938,0.3125 -2.40625,0.3125 -0.78125,0 -1.5,-0.125 -0.70313,-0.10938 -1.26563,-0.28125 -0.5625,-0.1875 -0.9375,-0.375 -0.375,-0.1875 -0.54687,-0.34375 -0.17188,-0.17188 -0.26563,-0.51563 -0.0937,-0.35937 -0.0937,-1.04687 0,-0.45313 0.0312,-0.71875 0.0312,-0.28125 0.0937,-0.4375 0.0625,-0.17188 0.15625,-0.21875 0.0937,-0.0625 0.23438,-0.0625 0.17187,0 0.5,0.20312 0.34375,0.1875 0.84375,0.42188 0.5,0.23437 1.15625,0.4375 0.67187,0.20312 1.51562,0.20312 0.53125,0 0.9375,-0.10937 0.42188,-0.10938 0.71875,-0.3125 0.3125,-0.20313 0.46875,-0.51563 0.15625,-0.3125 0.15625,-0.71875 0,-0.46875 -0.29687,-0.79687 -0.28125,-0.34375 -0.76563,-0.59375 -0.46875,-0.25 -1.07812,-0.46875 -0.59375,-0.21875 -1.23438,-0.48438 -0.625,-0.26562 -1.23437,-0.60937 -0.59375,-0.34375 -1.07813,-0.84375 -0.46875,-0.5 -0.76562,-1.20313 -0.28125,-0.70312 -0.28125,-1.6875 0,-1 0.39062,-1.82812 0.39063,-0.84375 1.125,-1.4375 0.73438,-0.59375 1.78125,-0.92188 1.0625,-0.32812 2.375,-0.32812 0.65625,0 1.26563,0.0937 0.625,0.0937 1.125,0.23437 0.5,0.14063 0.84375,0.3125 0.34375,0.15625 0.48437,0.28125 0.15625,0.10938 0.21875,0.23438 0.0625,0.10937 0.0937,0.28125 0.0312,0.15625 0.0469,0.40625 0.0312,0.23437 0.0312,0.59375 0,0.42187 -0.0312,0.6875 -0.0156,0.26562 -0.0781,0.42187 -0.0469,0.15625 -0.14062,0.21875 -0.0937,0.0469 -0.21875,0.0469 -0.14063,0 -0.4375,-0.15625 -0.29688,-0.17188 -0.75,-0.35938 -0.4375,-0.1875 -1.03125,-0.34375 -0.57813,-0.17187 -1.32813,-0.17187 -0.53125,0 -0.92187,0.10937 -0.39063,0.10938 -0.64063,0.3125 -0.25,0.20313 -0.375,0.48438 -0.125,0.26562 -0.125,0.57812 0,0.48438 0.29688,0.8125 0.29687,0.32813 0.78125,0.57813 0.48437,0.25 1.09375,0.46875 0.625,0.21875 1.25,0.48437 0.64062,0.25 1.25,0.59375 0.625,0.34375 1.10937,0.84375 0.48438,0.5 0.78125,1.20313 0.29688,0.6875 0.29688,1.64062 z m 6.89062,3.9375 q 0,0.15625 -0.0937,0.28125 -0.0937,0.10938 -0.32813,0.1875 -0.21875,0.0781 -0.59375,0.10938 -0.375,0.0469 -0.95312,0.0469 -0.57813,0 -0.95313,-0.0469 -0.375,-0.0312 -0.60937,-0.10938 -0.21875,-0.0781 -0.3125,-0.1875 -0.0937,-0.125 -0.0937,-0.28125 l 0,-13.90625 q 0,-0.15625 0.0937,-0.26562 0.0937,-0.125 0.3125,-0.20313 0.23437,-0.0937 0.60937,-0.14062 0.375,-0.0469 0.95313,-0.0469 0.57812,0 0.95312,0.0469 0.375,0.0469 0.59375,0.14062 0.23438,0.0781 0.32813,0.20313 0.0937,0.10937 0.0937,0.26562 l 0,13.90625 z m 0.29688,-18.65625 q 0,1.1875 -0.48438,1.64063 -0.48437,0.45312 -1.79687,0.45312 -1.32813,0 -1.79688,-0.4375 -0.45312,-0.4375 -0.45312,-1.57812 0,-1.1875 0.46875,-1.64063 0.48437,-0.46875 1.8125,-0.46875 1.3125,0 1.78125,0.45313 0.46875,0.4375 0.46875,1.57812 z m 16.9375,18.65625 q 0,0.15625 -0.0937,0.28125 -0.0937,0.10938 -0.3125,0.1875 -0.21875,0.0781 -0.60937,0.10938 -0.375,0.0469 -0.9375,0.0469 -0.57813,0 -0.96875,-0.0469 -0.375,-0.0312 -0.59375,-0.10938 -0.21875,-0.0781 -0.3125,-0.1875 -0.0937,-0.125 -0.0937,-0.28125 l 0,-7.95312 q 0,-1.01563 -0.15625,-1.59375 -0.14063,-0.57813 -0.42188,-0.98438 -0.28125,-0.42187 -0.73437,-0.64062 -0.4375,-0.23438 -1.03125,-0.23438 -0.75,0 -1.51563,0.54688 -0.76562,0.54687 -1.59375,1.59375 l 0,9.26562 q 0,0.15625 -0.0937,0.28125 -0.0937,0.10938 -0.32812,0.1875 -0.21875,0.0781 -0.59375,0.10938 -0.375,0.0469 -0.95313,0.0469 -0.57812,0 -0.95312,-0.0469 -0.375,-0.0312 -0.60938,-0.10938 -0.21875,-0.0781 -0.3125,-0.1875 -0.0937,-0.125 -0.0937,-0.28125 l 0,-13.9375 q 0,-0.15625 0.0781,-0.26562 0.0781,-0.125 0.28125,-0.20313 0.20312,-0.0781 0.51562,-0.10937 0.32813,-0.0469 0.8125,-0.0469 0.5,0 0.82813,0.0469 0.32812,0.0312 0.5,0.10937 0.1875,0.0781 0.26562,0.20313 0.0781,0.10937 0.0781,0.26562 l 0,1.60938 q 1.15625,-1.25 2.34375,-1.875 1.20312,-0.625 2.5,-0.625 1.42187,0 2.39062,0.46875 0.98438,0.46875 1.57813,1.28125 0.60937,0.79687 0.875,1.875 0.26562,1.07812 0.26562,2.59375 l 0,8.60937 z m 16.421871,-12.96875 q 0,0.75 -0.17187,1.10938 -0.17188,0.35937 -0.42188,0.35937 l -1.64062,0 q 0.34375,0.375 0.48437,0.85938 0.15625,0.46875 0.15625,0.98437 0,1.21875 -0.40625,2.17188 -0.40625,0.9375 -1.17187,1.59375 -0.75,0.64062 -1.82813,0.98437 -1.0625,0.32813 -2.375,0.32813 -0.67187,0 -1.28125,-0.15625 -0.60937,-0.17188 -0.9375,-0.39063 -0.1875,0.20313 -0.34375,0.48438 -0.14062,0.28125 -0.14062,0.625 0,0.45312 0.39062,0.75 0.40625,0.28125 1.125,0.3125 l 3.39063,0.125 q 1.1875,0.0469 2.10937,0.34375 0.9375,0.28125 1.5625,0.8125 0.64063,0.51562 0.96875,1.25 0.34375,0.73437 0.34375,1.67187 0,1.03125 -0.45312,1.9375 -0.45313,0.92188 -1.35938,1.59375 -0.90625,0.67188 -2.28125,1.0625 -1.35937,0.39063 -3.1875,0.39063 -1.78125,0 -3.04687,-0.28125 -1.25,-0.28125 -2.0625,-0.78125 -0.79688,-0.5 -1.17188,-1.20313 -0.35937,-0.6875 -0.35937,-1.51562 0,-0.51563 0.125,-0.98438 0.14062,-0.46875 0.39062,-0.90625 0.26563,-0.42187 0.64063,-0.8125 0.375,-0.39062 0.85937,-0.75 -0.67187,-0.35937 -1.04687,-0.96875 -0.35938,-0.625 -0.35938,-1.35937 0,-0.92188 0.42188,-1.67188 0.42187,-0.76562 1.09375,-1.375 -0.54688,-0.54687 -0.875,-1.3125 -0.32813,-0.76562 -0.32813,-1.90625 0,-1.21875 0.42188,-2.17187 0.4375,-0.96875 1.20312,-1.625 0.76563,-0.67188 1.82813,-1.01563 1.0625,-0.35937 2.34375,-0.35937 0.65625,0 1.25,0.0781 0.60937,0.0781 1.125,0.21875 l 4.42187,0 q 0.26563,0 0.42188,0.34375 0.17187,0.34375 0.17187,1.15625 z m -5.04687,3.29688 q 0,-1.125 -0.625,-1.75 -0.625,-0.625 -1.76563,-0.625 -0.57812,0 -1.01562,0.20312 -0.4375,0.1875 -0.73438,0.53125 -0.28125,0.32813 -0.42187,0.78125 -0.14063,0.4375 -0.14063,0.92188 0,1.0625 0.625,1.6875 0.625,0.60937 1.73438,0.60937 0.59375,0 1.03125,-0.1875 0.4375,-0.1875 0.71875,-0.51562 0.29687,-0.32813 0.4375,-0.75 0.15625,-0.4375 0.15625,-0.90625 z m 0.92187,11.125 q 0,-0.70313 -0.5625,-1.07813 -0.5625,-0.375 -1.54687,-0.40625 l -2.79688,-0.0781 q -0.40625,0.29687 -0.65625,0.57812 -0.23437,0.26563 -0.39062,0.51563 -0.14063,0.25 -0.1875,0.48437 -0.0469,0.23438 -0.0469,0.48438 0,0.78125 0.78125,1.1875 0.79687,0.40625 2.23437,0.40625 0.89063,0 1.5,-0.1875 0.60938,-0.17188 0.98438,-0.46875 0.375,-0.29688 0.53125,-0.67188 0.15625,-0.35937 0.15625,-0.76562 z"
         style="fill:#000000;fill-rule:nonzero"
         inkscape:connector-curvature="0" />
      <path
         id="path5158"
         d="m -336.60976,510.6447 0.6875,-17.71875 q 0.0469,-1.54687 0.0469,-1.625 0,-0.85937 -0.42188,-1.26562 -0.40625,-0.40625 -1.51562,-0.48438 l 0.1875,-0.57812 8.90625,0 -0.17188,0.57812 q -1.14062,0 -1.73437,0.6875 -0.57813,0.6875 -0.67188,2.84375 l -0.5,11.04688 8.26563,-9.59375 q 1.60937,-1.85938 1.98437,-2.57813 0.375,-0.71875 0.375,-1.25 0,-0.39062 -0.34375,-0.6875 -0.34375,-0.3125 -1.3125,-0.46875 l 0.21875,-0.57812 5.84375,0 0,0.57812 q -0.75,0.1875 -1.21875,0.54688 -0.6875,0.51562 -2.125,2.1875 l -15.8125,18.35937 -0.6875,0 z"
         style="fill:#000000;fill-rule:nonzero"
         inkscape:connector-curvature="0" />
      <g
         id="p16.3"
         transform="translate(-882.30407,-103.77998)">
        <path
           id="path5196"
           d="M 664.71875,569.3097 708.6759,540.7848"
           inkscape:connector-curvature="0"
           style="fill:#000000;fill-opacity:0;fill-rule:nonzero" />
        <path
           id="path5198"
           d="m 664.71875,569.3097 36.29102,-23.55011"
           inkscape:connector-curvature="0"
           style="fill-rule:evenodd;stroke:#000000;stroke-width:2.66666675;stroke-linecap:butt;stroke-linejoin:round" />
        <path
           id="path5200"
           d="m 701.0097,545.7596 -0.88318,4.14807 5.27924,-7.00073 -8.54413,1.96948 z"
           inkscape:connector-curvature="0"
           style="fill:#000000;fill-rule:evenodd;stroke:#000000;stroke-width:2.66666675;stroke-linecap:butt" />
      </g>
    </g>
  </g>
</svg>
